<svg xmlns="http://www.w3.org/2000/svg" xmlns:xlink="http://www.w3.org/1999/xlink" viewBox="0 0 750 500"><defs><style>.cls-1{isolation:isolate;}.cls-2{mix-blend-mode:screen;}.cls-3{fill:#fff;}.cls-4{opacity:0.5;}.cls-5{fill:#e3e3e3;}.cls-6{fill:url(#linear-gradient);}.cls-7{fill:url(#linear-gradient-2);}.cls-8{fill:url(#linear-gradient-3);}.cls-9{fill:url(#linear-gradient-4);}.cls-10{fill:url(#linear-gradient-5);}</style><linearGradient id="linear-gradient" x1="-164.75" y1="281.27" x2="945.26" y2="281.27" gradientUnits="userSpaceOnUse"><stop offset="0" stop-color="#9e9e9e"/><stop offset="0.02" stop-color="#a9a9a9"/><stop offset="0.09" stop-color="#c4c4c4"/><stop offset="0.17" stop-color="#dadada"/><stop offset="0.27" stop-color="#ebebeb"/><stop offset="0.38" stop-color="#f6f6f6"/><stop offset="0.55" stop-color="#fdfdfd"/><stop offset="1" stop-color="#fff"/></linearGradient><linearGradient id="linear-gradient-2" x1="481.29" y1="550.76" x2="481.29" y2="87.32" gradientUnits="userSpaceOnUse"><stop offset="0" stop-color="#9e9e9e"/><stop offset="0.08" stop-color="#b1b1b1"/><stop offset="0.22" stop-color="#cdcdcd"/><stop offset="0.37" stop-color="#e3e3e3"/><stop offset="0.54" stop-color="#f3f3f3"/><stop offset="0.73" stop-color="#fcfcfc"/><stop offset="1" stop-color="#fff"/></linearGradient><linearGradient id="linear-gradient-3" x1="-133.82" y1="325.43" x2="962.63" y2="325.43" gradientUnits="userSpaceOnUse"><stop offset="0" stop-color="#fff"/><stop offset="0.45" stop-color="#fdfdfd"/><stop offset="0.62" stop-color="#f6f6f6"/><stop offset="0.73" stop-color="#ebebeb"/><stop offset="0.83" stop-color="#dadada"/><stop offset="0.91" stop-color="#c4c4c4"/><stop offset="0.98" stop-color="#a9a9a9"/><stop offset="1" stop-color="#9e9e9e"/></linearGradient><linearGradient id="linear-gradient-4" x1="-15.8" y1="250" x2="820.42" y2="250" xlink:href="#linear-gradient"/><linearGradient id="linear-gradient-5" x1="624.63" y1="545.43" x2="624.63" y2="304.13" xlink:href="#linear-gradient-2"/></defs><title>Ресурс 3</title><g class="cls-1"><g id="Слой_2" data-name="Слой 2"><g id="OBJECTS"><g class="cls-2"><path class="cls-3" d="M6.42,490.62a7.42,7.42,0,0,1,7.4-7.35,7.6,7.6,0,0,1,7.36,7.47A7.46,7.46,0,0,1,13.69,498,7.26,7.26,0,0,1,6.42,490.62Z"/><path class="cls-3" d="M14,467.31a7.3,7.3,0,1,1-7.52,7.15A7.33,7.33,0,0,1,14,467.31Z"/><path class="cls-3" d="M0,497.6a7.3,7.3,0,0,0,5-7.07,7.34,7.34,0,0,0-5-6.77Z"/><path class="cls-3" d="M0,481.44a7.22,7.22,0,0,0,4.94-6.56A7.33,7.33,0,0,0,0,467.73Z"/><path class="cls-3" d="M22.21,490.6a7.21,7.21,0,0,1,7.52-7.1,7.07,7.07,0,0,1,6.92,7.28,7.2,7.2,0,0,1-7.1,7.15A7.29,7.29,0,0,1,22.21,490.6Z"/><path class="cls-3" d="M36.59,474.63a7,7,0,0,1-7.08,7.1,7.16,7.16,0,0,1-7.27-7,7.3,7.3,0,0,1,7.34-7.36A7.15,7.15,0,0,1,36.59,474.63Z"/><path class="cls-3" d="M10.43,500h6.68a7.24,7.24,0,0,0-3.26-.8A7.37,7.37,0,0,0,10.43,500Z"/><path class="cls-3" d="M26.36,500H32.6a7.38,7.38,0,0,0-3.14-.7A7.27,7.27,0,0,0,26.36,500Z"/><path class="cls-3" d="M20.84,458.75A6.92,6.92,0,0,1,14,466a7.11,7.11,0,0,1-7.41-7.14,7.34,7.34,0,0,1,7.14-7.13A7.12,7.12,0,0,1,20.84,458.75Z"/><path class="cls-3" d="M0,465.57a7,7,0,0,0,4.84-6.25A7.31,7.31,0,0,0,0,452.15Z"/><path class="cls-3" d="M42.7,500h5.67a6.9,6.9,0,0,0-2.56-.59A7.25,7.25,0,0,0,42.7,500Z"/><path class="cls-3" d="M52.66,490.72a7.31,7.31,0,0,1-7.24,7.08,7.09,7.09,0,0,1-6.89-7.33,6.91,6.91,0,0,1,7-6.8A7.08,7.08,0,0,1,52.66,490.72Z"/><path class="cls-3" d="M38.55,474.44a7.07,7.07,0,0,1,7.24-6.93,7.31,7.31,0,0,1,6.85,7.05,7.07,7.07,0,0,1-7.15,7A6.91,6.91,0,0,1,38.55,474.44Z"/><path class="cls-3" d="M29.45,451.75a7.1,7.1,0,0,1,7,7.13,6.9,6.9,0,0,1-7,7,7.09,7.09,0,0,1-7.14-7A7.34,7.34,0,0,1,29.45,451.75Z"/><path class="cls-3" d="M52.54,459.29A7,7,0,0,1,45,465.83a7,7,0,0,1,1.17-13.9A7.09,7.09,0,0,1,52.54,459.29Z"/><path class="cls-3" d="M13.85,435.86a6.9,6.9,0,0,1,6.85,6.86,7,7,0,0,1-7,7.1,7.16,7.16,0,0,1-6.92-6.92A7,7,0,0,1,13.85,435.86Z"/><path class="cls-3" d="M29.43,435.89a6.93,6.93,0,1,1-6.89,6.86A6.93,6.93,0,0,1,29.43,435.89Z"/><path class="cls-3" d="M0,449.36a7,7,0,0,0,4.63-6.76A6.94,6.94,0,0,0,0,436.29Z"/><path class="cls-3" d="M68.14,490.61a6.9,6.9,0,1,1-7-6.83A6.87,6.87,0,0,1,68.14,490.61Z"/><path class="cls-3" d="M58.76,500h5a6.76,6.76,0,0,0-5,0Z"/><path class="cls-3" d="M54.36,474.65a6.85,6.85,0,0,1,6.84-6.89,6.77,6.77,0,0,1,6.9,6.81,6.87,6.87,0,1,1-13.74.08Z"/><path class="cls-3" d="M45.4,436a6.81,6.81,0,0,1,6.92,6.81,6.64,6.64,0,0,1-6.47,6.82A6.81,6.81,0,0,1,38.69,443,6.94,6.94,0,0,1,45.4,436Z"/><path class="cls-3" d="M68,459a6.78,6.78,0,0,1-7,6.71A7,7,0,0,1,54.41,459a6.79,6.79,0,0,1,6.86-6.83A6.6,6.6,0,0,1,68,459Z"/><path class="cls-3" d="M13.59,420.28a6.94,6.94,0,0,1,7,6.73,6.77,6.77,0,0,1-6.46,6.81A6.59,6.59,0,0,1,7,427.36,6.77,6.77,0,0,1,13.59,420.28Z"/><path class="cls-3" d="M0,433.42a6.49,6.49,0,0,0,4.39-6A6.82,6.82,0,0,0,0,420.7Z"/><path class="cls-3" d="M36.27,427a6.76,6.76,0,0,1-6.54,6.78,6.56,6.56,0,0,1-7-6.63,6.76,6.76,0,0,1,6.82-6.87A7,7,0,0,1,36.27,427Z"/><path class="cls-3" d="M74.88,500h4.2a6.48,6.48,0,0,0-2.07-.37A6.36,6.36,0,0,0,74.88,500Z"/><path class="cls-3" d="M77.14,483.91a6.75,6.75,0,0,1,6.48,6.86,6.55,6.55,0,0,1-7.05,6.57,6.76,6.76,0,0,1-6.38-6.95A7,7,0,0,1,77.14,483.91Z"/><path class="cls-3" d="M45.44,420.35a6.73,6.73,0,0,1,6.75,6.56,6.52,6.52,0,0,1-6.37,6.83,6.73,6.73,0,0,1-7-6.64A7,7,0,0,1,45.44,420.35Z"/><path class="cls-3" d="M54.48,442.8A7,7,0,0,1,61.15,436a6.74,6.74,0,0,1,6.76,7,6.52,6.52,0,0,1-6.77,6.47A6.73,6.73,0,0,1,54.48,442.8Z"/><path class="cls-3" d="M70.2,474.53A6.74,6.74,0,0,1,76.94,468a6.53,6.53,0,0,1,6.66,6.91,6.73,6.73,0,0,1-6.82,6.48A7,7,0,0,1,70.2,474.53Z"/><path class="cls-3" d="M83.57,458.81A6.71,6.71,0,0,1,77,465.6,6.9,6.9,0,0,1,70.26,459a6.69,6.69,0,0,1,6.61-6.7A6.53,6.53,0,0,1,83.57,458.81Z"/><path class="cls-3" d="M7.16,411.33a6.65,6.65,0,0,1,6.66-6.6,6.83,6.83,0,0,1,6.6,6.72A6.67,6.67,0,0,1,13.7,418,6.53,6.53,0,0,1,7.16,411.33Z"/><path class="cls-3" d="M0,417.55a6.52,6.52,0,0,0,4.25-6.08A6.67,6.67,0,0,0,0,405.2Z"/><path class="cls-3" d="M54.66,427a6.68,6.68,0,0,1,6.75-6.54A6.59,6.59,0,1,1,54.66,427Z"/><path class="cls-3" d="M77.13,436.25a6.56,6.56,0,1,1-6.73,6.49A6.56,6.56,0,0,1,77.13,436.25Z"/><path class="cls-3" d="M22.9,411.2a6.59,6.59,0,0,1,6.85-6.39,6.67,6.67,0,0,1,6.31,6.6,6.58,6.58,0,1,1-13.16-.21Z"/><path class="cls-3" d="M99.55,474.64a6.52,6.52,0,0,1-13-.09,6.57,6.57,0,0,1,6.76-6.48A6.5,6.5,0,0,1,99.55,474.64Z"/><path class="cls-3" d="M93.09,484.17a6.52,6.52,0,0,1-.11,13,6.52,6.52,0,1,1,.11-13Z"/><path class="cls-3" d="M52.07,411.35a6.52,6.52,0,1,1-6.38-6.47A6.55,6.55,0,0,1,52.07,411.35Z"/><path class="cls-3" d="M99.46,459.36a6.34,6.34,0,0,1-6.82,5.95,6.42,6.42,0,0,1-6.09-6.72,6.58,6.58,0,0,1,7.06-6.18A6.48,6.48,0,0,1,99.46,459.36Z"/><path class="cls-3" d="M83.44,427.2A6.57,6.57,0,0,1,77,433.58a6.4,6.4,0,0,1-6.4-6.74,6.27,6.27,0,0,1,6.58-6.14A6.42,6.42,0,0,1,83.44,427.2Z"/><path class="cls-3" d="M67.71,411.3a6.57,6.57,0,0,1-6.25,6.56,6.4,6.4,0,0,1-6.58-6.53A6.22,6.22,0,0,1,61.25,405,6.39,6.39,0,0,1,67.71,411.3Z"/><path class="cls-3" d="M7.29,395.24a6.58,6.58,0,0,1,6.42-6.39,6.39,6.39,0,0,1,6.41,6.7,6.24,6.24,0,0,1-6.54,6.14A6.41,6.41,0,0,1,7.29,395.24Z"/><path class="cls-3" d="M86.59,443a6.39,6.39,0,0,1,6.32-6.49,6.2,6.2,0,0,1,6.47,6.24,6.38,6.38,0,0,1-6.22,6.56A6.59,6.59,0,0,1,86.59,443Z"/><path class="cls-3" d="M29.53,388.87a6.37,6.37,0,0,1,6.27,6.51,6.19,6.19,0,0,1-6.43,6.28A6.39,6.39,0,0,1,23,395.23,6.58,6.58,0,0,1,29.53,388.87Z"/><path class="cls-3" d="M0,401.23a6.34,6.34,0,0,0,4.12-5.91,6.58,6.58,0,0,0-4.12-6Z"/><path class="cls-3" d="M108.89,484.41a6.13,6.13,0,0,1,6.13,6.52,6.35,6.35,0,0,1-6.24,6.14,6.58,6.58,0,0,1-6.42-6.43A6.36,6.36,0,0,1,108.89,484.41Z"/><path class="cls-3" d="M115,474.63a6.15,6.15,0,0,1-6.41,6.25,6.37,6.37,0,0,1-6.26-6.13,6.57,6.57,0,0,1,6.32-6.54A6.37,6.37,0,0,1,115,474.63Z"/><path class="cls-3" d="M51.94,395.75A6.4,6.4,0,0,1,45,401.6a6.18,6.18,0,0,1-5.74-6.93,6.35,6.35,0,0,1,6.64-5.75A6.56,6.56,0,0,1,51.94,395.75Z"/><path class="cls-3" d="M93,420.84a6.14,6.14,0,0,1,6.3,6.33,6.35,6.35,0,0,1-6,6.29,6.56,6.56,0,0,1-6.58-6.23A6.38,6.38,0,0,1,93,420.84Z"/><path class="cls-3" d="M83.33,411.33a6.57,6.57,0,0,1-6.39,6.43,6.36,6.36,0,0,1-6.24-6.11,6.15,6.15,0,0,1,6.1-6.52A6.38,6.38,0,0,1,83.33,411.33Z"/><path class="cls-3" d="M102.39,459a6.56,6.56,0,0,1,6.29-6.52,6.36,6.36,0,0,1,6.32,6,6.14,6.14,0,0,1-6,6.6A6.35,6.35,0,0,1,102.39,459Z"/><path class="cls-3" d="M67.56,395.3a6.33,6.33,0,0,1-6.49,6.24,6.16,6.16,0,0,1-6-6.22,6.33,6.33,0,0,1,6-6.31A6.45,6.45,0,0,1,67.56,395.3Z"/><path class="cls-3" d="M102.48,442.73a6.29,6.29,0,0,1,6.26-6.13,6.15,6.15,0,0,1,6.21,6.48,6.3,6.3,0,0,1-6.38,6A6.43,6.43,0,0,1,102.48,442.73Z"/><path class="cls-3" d="M13.8,373.34A6.27,6.27,0,0,1,20,379.56a6.16,6.16,0,0,1-6.44,6.25,6.3,6.3,0,0,1-6-6.35A6.4,6.4,0,0,1,13.8,373.34Z"/><path class="cls-3" d="M0,385.35a6.27,6.27,0,0,0,4-5.9A6.46,6.46,0,0,0,0,373.81Z"/><path class="cls-3" d="M99.22,411.31A6.19,6.19,0,1,1,93,405.22,6.2,6.2,0,0,1,99.22,411.31Z"/><path class="cls-3" d="M29.31,385.8a6.27,6.27,0,0,1-6.09-6.25,6.35,6.35,0,0,1,6.21-6.18,6.25,6.25,0,0,1,6.22,6.48A6.17,6.17,0,0,1,29.31,385.8Z"/><path class="cls-3" d="M39.38,379.48a6.15,6.15,0,1,1,6,6.28A6.16,6.16,0,0,1,39.38,379.48Z"/><path class="cls-3" d="M83.1,395.44a6.15,6.15,0,1,1-6-6.28A6.15,6.15,0,0,1,83.1,395.44Z"/><path class="cls-3" d="M131,490.77a6.16,6.16,0,1,1-6.06-6.24A6.12,6.12,0,0,1,131,490.77Z"/><path class="cls-3" d="M124.89,480.74a6.18,6.18,0,0,1-6.2-6.15,6.11,6.11,0,0,1,6.25-6.09,6,6,0,0,1,6,5.95A6.11,6.11,0,0,1,124.89,480.74Z"/><path class="cls-3" d="M114.89,427.22a6.12,6.12,0,0,1-6.35,6,6,6,0,0,1-5.89-6.05,6.11,6.11,0,0,1,6.14-6.19A6.19,6.19,0,0,1,114.89,427.22Z"/><path class="cls-3" d="M124.88,452.84a5.94,5.94,0,0,1,6,6.21,6,6,0,0,1-5.93,6,6.17,6.17,0,0,1-6.24-6.07A6.06,6.06,0,0,1,124.88,452.84Z"/><path class="cls-3" d="M55.13,379.51a6.07,6.07,0,0,1,6.31-6,6,6,0,0,1,5.86,6.36,6,6,0,0,1-6.07,5.81A6.17,6.17,0,0,1,55.13,379.51Z"/><path class="cls-3" d="M124.75,436.72a6,6,0,0,1,6.08,6.19,5.86,5.86,0,0,1-5.94,5.89,6,6,0,0,1-6.14-6.11A6.22,6.22,0,0,1,124.75,436.72Z"/><path class="cls-3" d="M29.53,357.46a6.21,6.21,0,0,1,6,6.3,6,6,0,0,1-6.12,5.73,5.83,5.83,0,0,1-5.91-6.23A6,6,0,0,1,29.53,357.46Z"/><path class="cls-3" d="M99.11,395.24A6.21,6.21,0,0,1,93,401.38a6,6,0,0,1-5.87-6,5.82,5.82,0,0,1,5.7-6.06A6,6,0,0,1,99.11,395.24Z"/><path class="cls-3" d="M108.63,405.33a6.21,6.21,0,0,1,6.19,6.11,6,6,0,0,1-5.93,5.92,5.83,5.83,0,0,1-6.1-5.67A6,6,0,0,1,108.63,405.33Z"/><path class="cls-3" d="M13.9,357.46a6.19,6.19,0,0,1,5.91,6.38,6,6,0,0,1-6.18,5.65,5.83,5.83,0,0,1-5.83-6.3A6,6,0,0,1,13.9,357.46Z"/><path class="cls-3" d="M0,369a5.82,5.82,0,0,0,3.64-5.55A6,6,0,0,0,0,357.94Z"/><path class="cls-3" d="M134.53,474.64a6,6,0,0,1,5.87-5.93,5.78,5.78,0,0,1,6,5.68,6,6,0,0,1-6,6.22A6.21,6.21,0,0,1,134.53,474.64Z"/><path class="cls-3" d="M39.51,363.67a6.22,6.22,0,0,1,5.77-6.17,6,6,0,0,1,6.17,5.67,5.79,5.79,0,0,1-5.85,6.27A6,6,0,0,1,39.51,363.67Z"/><path class="cls-3" d="M70.91,379.57a6,6,0,0,1,6-5.9,5.8,5.8,0,0,1,6,6.18,6,6,0,0,1-6.08,5.8A6.22,6.22,0,0,1,70.91,379.57Z"/><path class="cls-3" d="M146.44,490.68a5.78,5.78,0,0,1-5.82,5.9,6,6,0,0,1-6.09-5.73,6.21,6.21,0,0,1,6.1-6.18A6,6,0,0,1,146.44,490.68Z"/><path class="cls-3" d="M118.8,427a6.22,6.22,0,0,1,6-5.91,6,6,0,0,1,5.89,6.33,5.78,5.78,0,0,1-6.13,5.62A6,6,0,0,1,118.8,427Z"/><path class="cls-3" d="M61.09,357.55a6,6,0,0,1,6,5.81,5.78,5.78,0,0,1-5.73,6,6,6,0,0,1-6.13-5.73A6.16,6.16,0,0,1,61.09,357.55Z"/><path class="cls-3" d="M134.56,459.05a6,6,0,0,1,5.82-6,5.78,5.78,0,0,1,6,5.73,6,6,0,0,1-5.74,6.13A6.17,6.17,0,0,1,134.56,459.05Z"/><path class="cls-3" d="M0,353.15a5.77,5.77,0,0,0,3.5-5.28A5.91,5.91,0,0,0,0,342.45Z"/><path class="cls-3" d="M140.5,437.34a5.79,5.79,0,0,1,5.88,5.9,5.89,5.89,0,0,1-6,5.85,6,6,0,0,1-5.76-5.77A5.91,5.91,0,0,1,140.5,437.34Z"/><path class="cls-3" d="M130.67,411.46a5.78,5.78,0,0,1-6,5.77,5.91,5.91,0,0,1-5.75-5.72,6.07,6.07,0,0,1,5.9-6A5.91,5.91,0,0,1,130.67,411.46Z"/><path class="cls-3" d="M13.71,341.94a6,6,0,0,1,5.92,5.93A5.89,5.89,0,0,1,14,353.63,5.77,5.77,0,0,1,7.93,348,5.88,5.88,0,0,1,13.71,341.94Z"/><path class="cls-3" d="M114.7,395.32a6.12,6.12,0,0,1-6,5.94,5.93,5.93,0,0,1-5.86-5.95,5.76,5.76,0,0,1,5.87-5.85A5.92,5.92,0,0,1,114.7,395.32Z"/><path class="cls-3" d="M92.9,373.75A5.93,5.93,0,0,1,99,379.46a6.12,6.12,0,0,1-5.8,6.09,5.92,5.92,0,0,1-6-5.79A5.78,5.78,0,0,1,92.9,373.75Z"/><path class="cls-3" d="M35.29,348a5.84,5.84,0,0,1-6.18,5.63,5.82,5.82,0,0,1,.7-11.61A5.88,5.88,0,0,1,35.29,348Z"/><path class="cls-3" d="M77,357.69a5.85,5.85,0,0,1,5.79,5.65,5.81,5.81,0,1,1-11.62,0A5.87,5.87,0,0,1,77,357.69Z"/><path class="cls-3" d="M45.36,342a5.78,5.78,0,1,1-5.6,5.78A5.81,5.81,0,0,1,45.36,342Z"/><path class="cls-3" d="M140.56,421.32a5.79,5.79,0,1,1-5.79,5.59A5.81,5.81,0,0,1,140.56,421.32Z"/><path class="cls-3" d="M156.51,485a5.65,5.65,0,0,1,5.83,5.54,5.75,5.75,0,1,1-5.83-5.54Z"/><path class="cls-3" d="M114.48,379.48a5.66,5.66,0,0,1-5.53,5.84,5.74,5.74,0,1,1,5.53-5.84Z"/><path class="cls-3" d="M61.42,342.12A5.74,5.74,0,0,1,67,347.89a5.8,5.8,0,0,1-6.08,5.67,5.72,5.72,0,0,1-5.35-6A5.59,5.59,0,0,1,61.42,342.12Z"/><path class="cls-3" d="M77.11,342.22a5.66,5.66,0,0,1,5.54,5.84,5.83,5.83,0,0,1-6,5.44,5.64,5.64,0,0,1-5.28-5.72A5.46,5.46,0,0,1,77.11,342.22Z"/><path class="cls-3" d="M140.72,405.74a5.7,5.7,0,0,1,5.55,5.84,5.81,5.81,0,0,1-5.89,5.54,5.68,5.68,0,0,1-5.49-5.88A5.53,5.53,0,0,1,140.72,405.74Z"/><path class="cls-3" d="M19.34,331.85a5.44,5.44,0,0,1-5.82,5.47,5.66,5.66,0,0,1-5.46-5.54A5.82,5.82,0,0,1,13.78,326,5.64,5.64,0,0,1,19.34,331.85Z"/><path class="cls-3" d="M87.29,363.53a5.73,5.73,0,0,1,5.65-5.7,5.58,5.58,0,0,1,5.78,5.52,5.71,5.71,0,0,1-5.79,5.92A5.8,5.8,0,0,1,87.29,363.53Z"/><path class="cls-3" d="M124.85,389.56a5.8,5.8,0,0,1,5.73,5.65,5.71,5.71,0,0,1-5.93,5.78,5.58,5.58,0,0,1-5.51-5.79A5.73,5.73,0,0,1,124.85,389.56Z"/><path class="cls-3" d="M156.69,468.85a5.71,5.71,0,0,1,5.62,5.73,5.57,5.57,0,0,1-5.6,5.7,5.7,5.7,0,0,1-5.84-5.87A5.81,5.81,0,0,1,156.69,468.85Z"/><path class="cls-3" d="M162.28,458.74a5.54,5.54,0,0,1-5.53,5.8,5.68,5.68,0,0,1-5.86-5.52,5.81,5.81,0,0,1,5.58-5.86A5.71,5.71,0,0,1,162.28,458.74Z"/><path class="cls-3" d="M162.24,443.19a5.48,5.48,0,0,1-5.65,5.61,5.65,5.65,0,0,1-5.68-5.64,5.83,5.83,0,0,1,5.72-5.69A5.66,5.66,0,0,1,162.24,443.19Z"/><path class="cls-3" d="M0,336.78a5.54,5.54,0,0,0,3.34-5A5.79,5.79,0,0,0,0,326.62Z"/><path class="cls-3" d="M29.49,326.07A5.61,5.61,0,0,1,35,331.85a5.4,5.4,0,0,1-5.42,5.44,5.63,5.63,0,0,1-5.81-5.51A5.8,5.8,0,0,1,29.49,326.07Z"/><path class="cls-3" d="M119.26,379.46a5.64,5.64,0,0,1,5.81-5.52,5.83,5.83,0,0,1,5.43,5.6,5.62,5.62,0,0,1-5.7,5.62A5.44,5.44,0,0,1,119.26,379.46Z"/><path class="cls-3" d="M45.46,326.08a5.83,5.83,0,0,1,5.73,5.65,5.61,5.61,0,0,1-5.73,5.54A5.4,5.4,0,0,1,40,331.9,5.62,5.62,0,0,1,45.46,326.08Z"/><path class="cls-3" d="M114.29,363.68a5.63,5.63,0,0,1-5.79,5.49,5.85,5.85,0,0,1-5.4-5.6,5.61,5.61,0,0,1,5.69-5.58A5.42,5.42,0,0,1,114.29,363.68Z"/><path class="cls-3" d="M162.16,427a5.62,5.62,0,0,1-5.55,5.73A5.82,5.82,0,0,1,151,427a5.62,5.62,0,0,1,5.46-5.45A5.41,5.41,0,0,1,162.16,427Z"/><path class="cls-3" d="M135,395.49a5.63,5.63,0,0,1,5.45-5.83,5.83,5.83,0,0,1,5.74,5.64,5.62,5.62,0,0,1-5.36,5.54A5.42,5.42,0,0,1,135,395.49Z"/><path class="cls-3" d="M166.74,474.65a5.75,5.75,0,0,1,5.71-5.64,5.59,5.59,0,0,1,5.38,5.53,5.43,5.43,0,0,1-5.27,5.56A5.58,5.58,0,0,1,166.74,474.65Z"/><path class="cls-3" d="M93.2,342.32a5.41,5.41,0,0,1,5.34,5.48,5.59,5.59,0,0,1-5.67,5.61,5.82,5.82,0,0,1-5.43-5.57A5.59,5.59,0,0,1,93.2,342.32Z"/><path class="cls-3" d="M61.29,326.14A5.77,5.77,0,0,1,66.84,332a5.59,5.59,0,0,1-5.62,5.28,5.41,5.41,0,0,1-5.46-5.72A5.58,5.58,0,0,1,61.29,326.14Z"/><path class="cls-3" d="M172.5,485.19a5.41,5.41,0,0,1,5.33,5.49,5.6,5.6,0,0,1-5.69,5.6,5.82,5.82,0,0,1-5.41-5.59A5.58,5.58,0,0,1,172.5,485.19Z"/><path class="cls-3" d="M162.1,411.25a5.54,5.54,0,0,1-5.24,5.69,5.7,5.7,0,0,1-5.8-5.58,5.55,5.55,0,0,1,5.5-5.44A5.41,5.41,0,0,1,162.1,411.25Z"/><path class="cls-3" d="M172.34,437.67a5.51,5.51,0,0,1,5.45,5.43,5.44,5.44,0,0,1-5.66,5.54,5.52,5.52,0,0,1-5.32-5.56A5.66,5.66,0,0,1,172.34,437.67Z"/><path class="cls-3" d="M177.81,458.86a5.42,5.42,0,0,1-5.36,5.51,5.57,5.57,0,0,1-5.69-5.64,5.74,5.74,0,0,1,5.63-5.39A5.55,5.55,0,0,1,177.81,458.86Z"/><path class="cls-3" d="M76.83,326.27a5.55,5.55,0,0,1,5.61,5.34,5.5,5.5,0,0,1-5.35,5.56,5.45,5.45,0,0,1-.26-10.9Z"/><path class="cls-3" d="M29.54,310.6A5.42,5.42,0,1,1,24,316,5.43,5.43,0,0,1,29.54,310.6Z"/><path class="cls-3" d="M140.66,374.13a5.56,5.56,0,0,1,5.35,5.6,5.46,5.46,0,1,1-5.35-5.6Z"/><path class="cls-3" d="M8.33,315.86a5.42,5.42,0,1,1,5.25,5.58A5.44,5.44,0,0,1,8.33,315.86Z"/><path class="cls-3" d="M103.33,347.69a5.42,5.42,0,1,1,5.3,5.56A5.4,5.4,0,0,1,103.33,347.69Z"/><path class="cls-3" d="M0,320.9a5.42,5.42,0,0,0,3.1-4.83A5.44,5.44,0,0,0,0,311.15Z"/><path class="cls-3" d="M119.39,363.43a5.46,5.46,0,0,1,10.92.19,5.55,5.55,0,0,1-5.58,5.37A5.46,5.46,0,0,1,119.39,363.43Z"/><path class="cls-3" d="M162,395.49a5.44,5.44,0,0,1-5.65,5.22,5.39,5.39,0,1,1,5.65-5.22Z"/><path class="cls-3" d="M40.14,316.05a5.39,5.39,0,1,1,5.51,5.37A5.38,5.38,0,0,1,40.14,316.05Z"/><path class="cls-3" d="M167,427.17a5.39,5.39,0,0,1,5.4-5.47,5.44,5.44,0,0,1,5.38,5.51,5.39,5.39,0,0,1-10.78,0Z"/><path class="cls-3" d="M98.42,331.71a5.44,5.44,0,0,1-5.43,5.4,5.35,5.35,0,0,1-5.28-5.52,5.25,5.25,0,0,1,5.22-5.18A5.33,5.33,0,0,1,98.42,331.71Z"/><path class="cls-3" d="M66.53,316a5.29,5.29,0,0,1-5.43,5.39,5.43,5.43,0,0,1-5.21-5.29,5.31,5.31,0,0,1,5.49-5.35A5.16,5.16,0,0,1,66.53,316Z"/><path class="cls-3" d="M188.19,485.33a5.43,5.43,0,0,1,5.2,5.67,5.32,5.32,0,0,1-5.49,5,5.18,5.18,0,0,1-5.13-5.63A5.27,5.27,0,0,1,188.19,485.33Z"/><path class="cls-3" d="M182.75,474.43a5.17,5.17,0,0,1,5.29-5.11,5.28,5.28,0,0,1,5.35,5.47,5.43,5.43,0,0,1-5.33,5.17A5.31,5.31,0,0,1,182.75,474.43Z"/><path class="cls-3" d="M167.05,411.39a5.27,5.27,0,0,1,5.47-5.35,5.44,5.44,0,0,1,5.17,5.33,5.31,5.31,0,0,1-5.53,5.31A5.17,5.17,0,0,1,167.05,411.39Z"/><path class="cls-3" d="M140.7,358.18a5.29,5.29,0,0,1,5.07,5.69,5.09,5.09,0,0,1-5.42,4.89,5.27,5.27,0,0,1-5.15-5.24A5.44,5.44,0,0,1,140.7,358.18Z"/><path class="cls-3" d="M130.08,348a5.11,5.11,0,0,1-5.25,5.08,5.28,5.28,0,0,1-5.33-5.44,5.42,5.42,0,0,1,5.31-5.14A5.3,5.3,0,0,1,130.08,348Z"/><path class="cls-3" d="M182.79,459a5.1,5.1,0,0,1,5-5.3,5.3,5.3,0,0,1,5.57,5.21,5.44,5.44,0,0,1-5.46,5.37A5.28,5.28,0,0,1,182.79,459Z"/><path class="cls-3" d="M188,438a5.31,5.31,0,0,1,5.4,5A5.45,5.45,0,0,1,188,448.5a5.27,5.27,0,0,1-5.13-5.31A5.06,5.06,0,0,1,188,438Z"/><path class="cls-3" d="M156.83,374.4a5.28,5.28,0,0,1,5.11,5.33,5.44,5.44,0,0,1-5.32,5.19,5.28,5.28,0,0,1-5.21-5.6A5.06,5.06,0,0,1,156.83,374.4Z"/><path class="cls-3" d="M77.26,310.84a5.28,5.28,0,0,1,5.37,5,5.44,5.44,0,0,1-5.38,5.46,5.27,5.27,0,0,1-5.1-5.29A5,5,0,0,1,77.26,310.84Z"/><path class="cls-3" d="M114,332a5.26,5.26,0,0,1-5.08,5.3,5,5,0,0,1-5.39-4.9,5.27,5.27,0,0,1,5.18-5.58A5.44,5.44,0,0,1,114,332Z"/><path class="cls-3" d="M0,305a5.29,5.29,0,0,0,2.83-4.58A5,5,0,0,0,0,295.68Z"/><path class="cls-3" d="M172.2,400.59a5.3,5.3,0,0,1-5-5.41,5.05,5.05,0,0,1,5.32-5,5.26,5.26,0,0,1,5.12,5.32A5.47,5.47,0,0,1,172.2,400.59Z"/><path class="cls-3" d="M45.36,295.18a5,5,0,0,1,5.32,5,5.26,5.26,0,0,1-5,5.41,5.45,5.45,0,0,1-5.41-5.06A5.25,5.25,0,0,1,45.36,295.18Z"/><path class="cls-3" d="M193.31,427a5.25,5.25,0,0,1-5.19,5.24,5,5,0,0,1-5.25-5.1,5.27,5.27,0,0,1,5.11-5.33A5.44,5.44,0,0,1,193.31,427Z"/><path class="cls-3" d="M93.18,310.89a5.23,5.23,0,0,1,5.1,5.27,5.43,5.43,0,0,1-5.36,5.11,5.27,5.27,0,0,1-5-5.37A5,5,0,0,1,93.18,310.89Z"/><path class="cls-3" d="M13.76,295.15A5.26,5.26,0,0,1,19,300.33a5.44,5.44,0,0,1-5.25,5.26,5.27,5.27,0,0,1-5.18-5.26A5,5,0,0,1,13.76,295.15Z"/><path class="cls-3" d="M29.54,295.16a5.23,5.23,0,0,1,5.19,5.24,5.44,5.44,0,0,1-5.33,5.19,5.27,5.27,0,0,1-5.1-5.33A5,5,0,0,1,29.54,295.16Z"/><path class="cls-3" d="M204,485.52a5.17,5.17,0,0,1,5.19,5.17,5,5,0,0,1-4.83,5.08,5.2,5.2,0,0,1-5.45-4.91A5.32,5.32,0,0,1,204,485.52Z"/><path class="cls-3" d="M161.83,363.49a5.22,5.22,0,0,1-5.27,5.15,5,5,0,0,1-5.05-4.91,5.23,5.23,0,0,1,5-5.42A5.39,5.39,0,0,1,161.83,363.49Z"/><path class="cls-3" d="M119.65,332.23a5.32,5.32,0,0,1,5.14-5.29,5.18,5.18,0,0,1,5.13,4.85,5,5,0,0,1-4.87,5.41A5.21,5.21,0,0,1,119.65,332.23Z"/><path class="cls-3" d="M182.94,411.23a5.18,5.18,0,0,1,5.35-5,5.33,5.33,0,0,1,4.92,5.13,5.18,5.18,0,0,1-5.23,5.13A5,5,0,0,1,182.94,411.23Z"/><path class="cls-3" d="M61.12,295.22a5,5,0,0,1,5.23,5.07,5.18,5.18,0,0,1-5.16,5.2,5.31,5.31,0,0,1-5.1-4.95A5.17,5.17,0,0,1,61.12,295.22Z"/><path class="cls-3" d="M140.69,342.6a5.23,5.23,0,0,1,5,5.46,5,5,0,0,1-5.46,4.87,5.24,5.24,0,0,1-4.86-5.19A5.4,5.4,0,0,1,140.69,342.6Z"/><path class="cls-3" d="M167.23,379.57a5,5,0,0,1,5.23-5.06,5.21,5.21,0,0,1,5,4.95,5.33,5.33,0,0,1-5.12,5.31A5.17,5.17,0,0,1,167.23,379.57Z"/><path class="cls-3" d="M198.94,474.51a5.21,5.21,0,0,1,5.36-5,5,5,0,0,1,4.91,5.38,5.18,5.18,0,0,1-5.1,4.89A5.32,5.32,0,0,1,198.94,474.51Z"/><path class="cls-3" d="M204.12,453.82a5,5,0,0,1,5.07,5.26,5.14,5.14,0,0,1-5.08,4.94A5.22,5.22,0,0,1,199,458.7,5.12,5.12,0,0,1,204.12,453.82Z"/><path class="cls-3" d="M103.7,316.18a5,5,0,0,1,5.07-5.21,5.07,5.07,0,1,1-5.07,5.21Z"/><path class="cls-3" d="M204.07,438.13a5.07,5.07,0,0,1,.11,10.13,5.07,5.07,0,1,1-.11-10.13Z"/><path class="cls-3" d="M77.15,295.26a5.07,5.07,0,1,1-4.87,5.42A5.09,5.09,0,0,1,77.15,295.26Z"/><path class="cls-3" d="M188,390.28a5,5,0,1,1-5,5A5,5,0,0,1,188,390.28Z"/><path class="cls-3" d="M14.22,279.29a4.9,4.9,0,0,1,4.46,5.44,5,5,0,0,1-5.42,4.5,5.1,5.1,0,0,1-4.51-5.47A5,5,0,0,1,14.22,279.29Z"/><path class="cls-3" d="M140.54,327.14a5,5,0,0,1,5,5,5.07,5.07,0,0,1-5,5,5,5,0,0,1-5-5A4.9,4.9,0,0,1,140.54,327.14Z"/><path class="cls-3" d="M199.16,427.29a4.9,4.9,0,0,1,4.8-5.14,5,5,0,0,1,5.17,4.79,5.07,5.07,0,0,1-4.83,5.17A5,5,0,0,1,199.16,427.29Z"/><path class="cls-3" d="M156.74,342.86a4.91,4.91,0,0,1,4.85,5.1,5,5,0,0,1-5.11,4.87,5.08,5.08,0,0,1-4.87-5.14A5,5,0,0,1,156.74,342.86Z"/><path class="cls-3" d="M0,288.63a5,5,0,0,0,2.68-4.42A4.91,4.91,0,0,0,0,279.86Z"/><path class="cls-3" d="M124.37,320.89a4.78,4.78,0,0,1-4.38-5.45,4.88,4.88,0,0,1,5.14-4.37,5.08,5.08,0,0,1,4.66,5.33A4.94,4.94,0,0,1,124.37,320.89Z"/><path class="cls-3" d="M34.38,284.14a4.92,4.92,0,0,1-4.82,5.08,5.07,5.07,0,0,1-5.09-4.87,5,5,0,0,1,4.87-5A4.84,4.84,0,0,1,34.38,284.14Z"/><path class="cls-3" d="M93.16,305.23a4.92,4.92,0,0,1-5.11-4.79,5.08,5.08,0,0,1,4.85-5.11A4.94,4.94,0,0,1,98,300.17,4.83,4.83,0,0,1,93.16,305.23Z"/><path class="cls-3" d="M45.46,279.36a4.87,4.87,0,0,1,5,4.88,5.07,5.07,0,0,1-5,5,4.9,4.9,0,0,1-4.81-4.76A4.78,4.78,0,0,1,45.46,279.36Z"/><path class="cls-3" d="M172.21,358.6a4.83,4.83,0,0,1,5,4.83,4.91,4.91,0,0,1-4.82,5.08,5.07,5.07,0,0,1-5.08-4.87A5,5,0,0,1,172.21,358.6Z"/><path class="cls-3" d="M187.87,374.64a4.91,4.91,0,0,1,5,4.89,4.77,4.77,0,0,1-4.56,4.94,4.89,4.89,0,0,1-5.29-4.63A5.09,5.09,0,0,1,187.87,374.64Z"/><path class="cls-3" d="M219.89,485.83a4.91,4.91,0,0,1,4.88,5,5.07,5.07,0,0,1-5.17,4.78,4.87,4.87,0,0,1-4.62-4.88A4.74,4.74,0,0,1,219.89,485.83Z"/><path class="cls-3" d="M66.2,284.19a5.08,5.08,0,0,1-5,5,4.87,4.87,0,0,1-4.81-5.06,4.7,4.7,0,0,1,4.71-4.73A4.88,4.88,0,0,1,66.2,284.19Z"/><path class="cls-3" d="M204.26,406.54a4.91,4.91,0,0,1,4.8,5.09,5.09,5.09,0,0,1-5.25,4.7,4.88,4.88,0,0,1-4.54-5A4.75,4.75,0,0,1,204.26,406.54Z"/><path class="cls-3" d="M220,469.65a5.1,5.1,0,0,1,4.8,5.17,4.88,4.88,0,0,1-5.25,4.62,4.71,4.71,0,0,1-4.54-4.9A4.89,4.89,0,0,1,220,469.65Z"/><path class="cls-3" d="M219.86,448a4.67,4.67,0,0,1-4.82-4.59,4.87,4.87,0,0,1,4.78-5.09,5.06,5.06,0,0,1,4.9,5A4.85,4.85,0,0,1,219.86,448Z"/><path class="cls-3" d="M204.26,400.1a4.67,4.67,0,0,1-4.92-4.49,4.84,4.84,0,0,1,4.66-5.19,5.06,5.06,0,0,1,5,4.94A4.87,4.87,0,0,1,204.26,400.1Z"/><path class="cls-3" d="M172.21,343a4.68,4.68,0,0,1,4.9,4.51,4.86,4.86,0,0,1-4.68,5.18,5.08,5.08,0,0,1-5-5A4.88,4.88,0,0,1,172.21,343Z"/><path class="cls-3" d="M103.83,300.28A5.08,5.08,0,0,1,109,295.4a4.86,4.86,0,0,1,4.61,4.93,4.69,4.69,0,0,1-5,4.8A4.88,4.88,0,0,1,103.83,300.28Z"/><path class="cls-3" d="M161.41,331.93a4.86,4.86,0,0,1-4.79,5.07,5.1,5.1,0,0,1-4.89-4.69,4.86,4.86,0,0,1,4.87-5A4.66,4.66,0,0,1,161.41,331.93Z"/><path class="cls-3" d="M215,458.81a4.86,4.86,0,0,1,4.71-4.83,5.07,5.07,0,0,1,5,5,4.86,4.86,0,0,1-5.17,4.75A4.69,4.69,0,0,1,215,458.81Z"/><path class="cls-3" d="M77.21,279.44a4.68,4.68,0,0,1,4.9,4.5,4.85,4.85,0,0,1-4.67,5.19,5.07,5.07,0,0,1-5-4.95A4.88,4.88,0,0,1,77.21,279.44Z"/><path class="cls-3" d="M135.78,316.11a4.84,4.84,0,0,1,4.58-4.95,5,5,0,0,1,5,4.94,4.85,4.85,0,0,1-4.86,4.69A4.66,4.66,0,0,1,135.78,316.11Z"/><path class="cls-3" d="M192.8,363.36a4.85,4.85,0,0,1-4.51,5,5,5,0,0,1-5.12-4.87,4.86,4.86,0,0,1,4.78-4.75A4.66,4.66,0,0,1,192.8,363.36Z"/><path class="cls-3" d="M29.58,263.81a4.67,4.67,0,0,1,4.6,4.84,4.82,4.82,0,0,1-4.84,4.67,4.93,4.93,0,0,1-4.66-4.91A4.79,4.79,0,0,1,29.58,263.81Z"/><path class="cls-3" d="M0,272.68a4.91,4.91,0,0,0,2.49-4.38A4.75,4.75,0,0,0,0,264.41Z"/><path class="cls-3" d="M14,263.79a4.66,4.66,0,0,1,4.51,4.89,4.86,4.86,0,0,1-4.81,4.68,5,5,0,0,1-4.75-5.16A4.83,4.83,0,0,1,14,263.79Z"/><path class="cls-3" d="M124.91,305a4.67,4.67,0,0,1-4.8-4.65,4.8,4.8,0,0,1,4.65-4.86,4.93,4.93,0,0,1,4.86,4.71A4.82,4.82,0,0,1,124.91,305Z"/><path class="cls-3" d="M92.93,279.52a4.66,4.66,0,0,1,4.83,4.61A4.79,4.79,0,0,1,93.15,289a4.92,4.92,0,0,1-4.9-4.67A4.81,4.81,0,0,1,92.93,279.52Z"/><path class="cls-3" d="M220,422.36a4.86,4.86,0,0,1,4.66,4.83,5,5,0,0,1-4.81,4.74,4.83,4.83,0,0,1-4.76-5.08A4.66,4.66,0,0,1,220,422.36Z"/><path class="cls-3" d="M167.65,332.06a4.68,4.68,0,1,1,4.73,4.73A4.7,4.7,0,0,1,167.65,332.06Z"/><path class="cls-3" d="M199.43,379.69a4.75,4.75,0,0,1,4.61-4.82,4.82,4.82,0,0,1,4.82,4.65,4.77,4.77,0,0,1-4.66,4.78A4.66,4.66,0,0,1,199.43,379.69Z"/><path class="cls-3" d="M56.58,268.55a4.68,4.68,0,0,1,4.73-4.7,4.69,4.69,0,1,1-4.73,4.7Z"/><path class="cls-3" d="M108.84,279.57a4.67,4.67,0,1,1-4.77,4.67A4.67,4.67,0,0,1,108.84,279.57Z"/><path class="cls-3" d="M156.49,311.34a4.68,4.68,0,1,1-4.54,4.92A4.71,4.71,0,0,1,156.49,311.34Z"/><path class="cls-3" d="M224.57,411.52a4.83,4.83,0,0,1-4.87,4.61,4.74,4.74,0,0,1-4.56-4.86A4.65,4.65,0,0,1,220,406.7,4.77,4.77,0,0,1,224.57,411.52Z"/><path class="cls-3" d="M240.58,490.74a4.68,4.68,0,1,1-4.7-4.73A4.71,4.71,0,0,1,240.58,490.74Z"/><path class="cls-3" d="M50.28,268.47a4.84,4.84,0,0,1-4.68,4.8,4.77,4.77,0,0,1-4.75-4.68,4.66,4.66,0,0,1,4.63-4.76A4.75,4.75,0,0,1,50.28,268.47Z"/><path class="cls-3" d="M192.69,348a4.67,4.67,0,0,1-4.93,4.43,4.63,4.63,0,0,1,.38-9.26A4.67,4.67,0,0,1,192.69,348Z"/><path class="cls-3" d="M140.45,295.7a4.56,4.56,0,0,1,4.71,4.63,4.64,4.64,0,1,1-4.71-4.63Z"/><path class="cls-3" d="M231.29,474.61A4.56,4.56,0,0,1,236,470a4.64,4.64,0,1,1-4.71,4.63Z"/><path class="cls-3" d="M235.82,454.26a4.64,4.64,0,1,1-4.53,4.82A4.59,4.59,0,0,1,235.82,454.26Z"/><path class="cls-3" d="M72.79,268.1a4.58,4.58,0,0,1,4.79-4.19,4.67,4.67,0,0,1,4.36,5A4.59,4.59,0,0,1,76.75,273,4.45,4.45,0,0,1,72.79,268.1Z"/><path class="cls-3" d="M224.4,395.13a4.62,4.62,0,0,1-4.58,4.81,4.68,4.68,0,0,1-4.61-4.42,4.58,4.58,0,0,1,4.6-4.77A4.48,4.48,0,0,1,224.4,395.13Z"/><path class="cls-3" d="M231.35,443.37a4.45,4.45,0,0,1,4.22-4.73,4.6,4.6,0,0,1,5,4.39,4.69,4.69,0,0,1-4.63,4.78A4.59,4.59,0,0,1,231.35,443.37Z"/><path class="cls-3" d="M204.29,358.9a4.59,4.59,0,0,1,4.38,5,4.46,4.46,0,0,1-4.75,4.2,4.57,4.57,0,0,1-4.42-4.57A4.67,4.67,0,0,1,204.29,358.9Z"/><path class="cls-3" d="M235.73,431.59a4.36,4.36,0,0,1-4.3-4.6,4.51,4.51,0,0,1,4.5-4.46,4.68,4.68,0,0,1,4.55,4.85A4.55,4.55,0,0,1,235.73,431.59Z"/><path class="cls-3" d="M224.27,379.76a4.49,4.49,0,0,1-4.59,4.39,4.74,4.74,0,0,1-4.41-4.67,4.51,4.51,0,0,1,4.68-4.32A4.32,4.32,0,0,1,224.27,379.76Z"/><path class="cls-3" d="M45.63,248A4.3,4.3,0,0,1,50,252.56,4.48,4.48,0,0,1,45.43,257,4.72,4.72,0,0,1,41,252.36,4.5,4.5,0,0,1,45.63,248Z"/><path class="cls-3" d="M129.3,284.06a4.34,4.34,0,0,1-4.23,4.65,4.53,4.53,0,0,1-4.82-4.51,4.69,4.69,0,0,1,4.5-4.54A4.5,4.5,0,0,1,129.3,284.06Z"/><path class="cls-3" d="M188.06,336.55a4.31,4.31,0,0,1-4.47-4.45,4.5,4.5,0,0,1,4.45-4.54,4.7,4.7,0,0,1,4.55,4.52A4.5,4.5,0,0,1,188.06,336.55Z"/><path class="cls-3" d="M93.22,273a4.35,4.35,0,0,1-4.66-4.23A4.54,4.54,0,0,1,93.08,264a4.71,4.71,0,0,1,4.54,4.49A4.52,4.52,0,0,1,93.22,273Z"/><path class="cls-3" d="M167.89,316.06a4.3,4.3,0,0,1,4.43-4.48,4.51,4.51,0,0,1,4.56,4.43,4.7,4.7,0,0,1-4.51,4.56A4.49,4.49,0,0,1,167.89,316.06Z"/><path class="cls-3" d="M25,252.55A4.31,4.31,0,0,1,29.38,248,4.51,4.51,0,0,1,34,252.37,4.72,4.72,0,0,1,29.56,257,4.48,4.48,0,0,1,25,252.55Z"/><path class="cls-3" d="M0,256.31a4.56,4.56,0,0,0,2.11-3.81A4.31,4.31,0,0,0,0,248.63Z"/><path class="cls-3" d="M13.59,248a4.54,4.54,0,0,1,4.73,4.23A4.68,4.68,0,0,1,13.75,257a4.51,4.51,0,0,1-4.47-4.48A4.34,4.34,0,0,1,13.59,248Z"/><path class="cls-3" d="M152.17,300.26a4.33,4.33,0,0,1,4.54-4.39,4.49,4.49,0,0,1,4.46,4.53,4.72,4.72,0,0,1-4.61,4.47A4.52,4.52,0,0,1,152.17,300.26Z"/><path class="cls-3" d="M231.49,411.51a4.5,4.5,0,0,1,4.3-4.64,4.73,4.73,0,0,1,4.64,4.38,4.49,4.49,0,0,1-4.37,4.56A4.31,4.31,0,0,1,231.49,411.51Z"/><path class="cls-3" d="M208.54,348a4.31,4.31,0,0,1-4.58,4.28,4.49,4.49,0,0,1-4.36-4.57,4.74,4.74,0,0,1,4.65-4.37A4.5,4.5,0,0,1,208.54,348Z"/><path class="cls-3" d="M73,252.46a4.31,4.31,0,0,1,4.18-4.38,4.44,4.44,0,0,1,4.63,4.36,4.66,4.66,0,0,1-4.62,4.47A4.48,4.48,0,0,1,73,252.46Z"/><path class="cls-3" d="M231.55,395.3a4.3,4.3,0,0,1,4.2-4.35,4.45,4.45,0,0,1,4.61,4.39,4.66,4.66,0,0,1-4.65,4.43A4.46,4.46,0,0,1,231.55,395.3Z"/><path class="cls-3" d="M224.19,363.52a4.31,4.31,0,0,1-4.19,4.37,4.45,4.45,0,0,1-4.62-4.37,4.65,4.65,0,0,1,4.63-4.46A4.47,4.47,0,0,1,224.19,363.52Z"/><path class="cls-3" d="M65.64,252.38a4.48,4.48,0,0,1-4.42,4.56,4.74,4.74,0,0,1-4.47-4.6,4.49,4.49,0,0,1,4.32-4.28A4.3,4.3,0,0,1,65.64,252.38Z"/><path class="cls-3" d="M108.67,272.92a4.31,4.31,0,0,1-4.31-4.58,4.49,4.49,0,0,1,4.3-4.31,4.72,4.72,0,0,1,4.58,4.48A4.49,4.49,0,0,1,108.67,272.92Z"/><path class="cls-3" d="M144.92,284.07a4.29,4.29,0,0,1-4.34,4.55,4.47,4.47,0,0,1-4.53-4.43,4.73,4.73,0,0,1,4.24-4.44A4.46,4.46,0,0,1,144.92,284.07Z"/><path class="cls-3" d="M251.76,470.22a4.45,4.45,0,0,1,4.34,4.61,4.72,4.72,0,0,1-4.42,4.26,4.47,4.47,0,0,1-4.45-4.52A4.28,4.28,0,0,1,251.76,470.22Z"/><path class="cls-3" d="M247.25,458.71a4.32,4.32,0,0,1,4.38-4.18,4.43,4.43,0,0,1,4.43,4.56,4.65,4.65,0,0,1-4.44,4.26A4.46,4.46,0,0,1,247.25,458.71Z"/><path class="cls-3" d="M251.8,495.07a4.3,4.3,0,0,1-4.57-4.32,4.47,4.47,0,0,1,4.41-4.56,4.73,4.73,0,0,1,4.46,4.22A4.47,4.47,0,0,1,251.8,495.07Z"/><path class="cls-3" d="M247.28,443.07a4.31,4.31,0,0,1,4.27-4.23A4.41,4.41,0,0,1,256,443.3a4.56,4.56,0,0,1-4.33,4.29A4.4,4.4,0,0,1,247.28,443.07Z"/><path class="cls-3" d="M247.31,427a4.36,4.36,0,0,1,4.34-4.23,4.42,4.42,0,0,1,4.31,4.3,4.35,4.35,0,0,1-4.56,4.36A4.28,4.28,0,0,1,247.31,427Z"/><path class="cls-3" d="M231.62,379.55a4.29,4.29,0,1,1,4.14,4.35A4.29,4.29,0,0,1,231.62,379.55Z"/><path class="cls-3" d="M156.62,279.94a4.29,4.29,0,1,1-4.29,4.2A4.31,4.31,0,0,1,156.62,279.94Z"/><path class="cls-3" d="M0,240.32a4.27,4.27,0,0,0,2-3.55,4.31,4.31,0,0,0-2-3.62Z"/><path class="cls-3" d="M18,236.79a4.29,4.29,0,1,1-4.14-4.34A4.29,4.29,0,0,1,18,236.79Z"/><path class="cls-3" d="M129.14,268.52a4.29,4.29,0,0,1-4.21,4.32,4.35,4.35,0,0,1-4.44-4.49,4.42,4.42,0,0,1,4.43-4.18A4.35,4.35,0,0,1,129.14,268.52Z"/><path class="cls-3" d="M172.75,296a4.34,4.34,0,1,1-4.71,3.8A4.37,4.37,0,0,1,172.75,296Z"/><path class="cls-3" d="M188,311.71a4.36,4.36,0,0,1,4.37,4.21,4.41,4.41,0,0,1-4.15,4.44,4.33,4.33,0,1,1-.22-8.65Z"/><path class="cls-3" d="M88.73,252.37A4.3,4.3,0,0,1,93,248.13a4.34,4.34,0,0,1,4.36,4.57,4.43,4.43,0,0,1-4.5,4.1A4.37,4.37,0,0,1,88.73,252.37Z"/><path class="cls-3" d="M33.75,236.78a4.29,4.29,0,1,1-4.15-4.33A4.29,4.29,0,0,1,33.75,236.78Z"/><path class="cls-3" d="M208.43,332.16a4.29,4.29,0,0,1-4.27,4.26,4.34,4.34,0,0,1-4.38-4.55,4.43,4.43,0,0,1,4.49-4.12A4.37,4.37,0,0,1,208.43,332.16Z"/><path class="cls-3" d="M215.61,347.84a4.14,4.14,0,0,1,4.21-4.24,4.23,4.23,0,0,1,4.27,4.21,4.3,4.3,0,0,1-4.24,4.27A4.23,4.23,0,0,1,215.61,347.84Z"/><path class="cls-3" d="M251.65,407.18a4.16,4.16,0,0,1,4.19,4.27,4.24,4.24,0,0,1-4.28,4.21,4.31,4.31,0,0,1-4.21-4.3A4.23,4.23,0,0,1,251.65,407.18Z"/><path class="cls-3" d="M41.33,236.83a4.21,4.21,0,0,1,4.12-4.35,4.3,4.3,0,0,1,4.36,4.14A4.25,4.25,0,0,1,45.66,241,4.16,4.16,0,0,1,41.33,236.83Z"/><path class="cls-3" d="M136.38,268.37a4.06,4.06,0,0,1,4.43-4,4.18,4.18,0,0,1,4,4.15,4.32,4.32,0,0,1-4.3,4.25A4.19,4.19,0,0,1,136.38,268.37Z"/><path class="cls-3" d="M57.09,236.84a4.19,4.19,0,0,1,4.16-4.34,4.31,4.31,0,0,1,4.24,4.3,4.19,4.19,0,0,1-4,4.1A4.07,4.07,0,0,1,57.09,236.84Z"/><path class="cls-3" d="M112.92,252.28a4.08,4.08,0,0,1-4.12,4.33,4.21,4.21,0,0,1-4.28-3.84,4.33,4.33,0,0,1,4-4.56A4.21,4.21,0,0,1,112.92,252.28Z"/><path class="cls-3" d="M200,315.86a4.15,4.15,0,0,1,4.06-4,4.34,4.34,0,0,1,4.2,4.32,4.14,4.14,0,0,1-4.5,3.93A3.94,3.94,0,0,1,200,315.86Z"/><path class="cls-3" d="M124.72,256.49a3.91,3.91,0,0,1-3.94-4.09,4.15,4.15,0,0,1,4-4.11,4.32,4.32,0,0,1,4.2,4.36A4.14,4.14,0,0,1,124.72,256.49Z"/><path class="cls-3" d="M188.31,304.43a4,4,0,0,1-4-4.33,4.16,4.16,0,0,1,4.06-4,4.3,4.3,0,0,1,4.27,4.21A4.16,4.16,0,0,1,188.31,304.43Z"/><path class="cls-3" d="M81.41,236.57a3.93,3.93,0,0,1-3.76,4.23,4.14,4.14,0,0,1-4.5-3.93,4.34,4.34,0,0,1,4.2-4.32A4.16,4.16,0,0,1,81.41,236.57Z"/><path class="cls-3" d="M215.78,332.15a3.91,3.91,0,0,1,3.94-4.09A4.12,4.12,0,0,1,224,331.9a4.31,4.31,0,0,1-4.19,4.36A4.15,4.15,0,0,1,215.78,332.15Z"/><path class="cls-3" d="M235.91,359.4a4,4,0,0,1,4.12,4.24,4.18,4.18,0,0,1-4,4.09,4.33,4.33,0,0,1-4.38-4.11A4.18,4.18,0,0,1,235.91,359.4Z"/><path class="cls-3" d="M172.37,280.16a3.89,3.89,0,0,1,4,4,4.14,4.14,0,0,1-4.14,4.3,4.37,4.37,0,0,1-4.12-4A4.14,4.14,0,0,1,172.37,280.16Z"/><path class="cls-3" d="M255.7,395.19a3.94,3.94,0,0,1-3.8,4.19,4.13,4.13,0,0,1-4.46-4,4.34,4.34,0,0,1,4.24-4.28A4.17,4.17,0,0,1,255.7,395.19Z"/><path class="cls-3" d="M267.81,486.56a4.17,4.17,0,0,1,4.09,4.33,4.3,4.3,0,0,1-4.47,4,4.18,4.18,0,0,1-3.85-4.2A4,4,0,0,1,267.81,486.56Z"/><path class="cls-3" d="M267.65,478.72a4,4,0,0,1-4.07-4.28,4.18,4.18,0,0,1,4-4.05,4.31,4.31,0,0,1,4.32,4.16A4.17,4.17,0,0,1,267.65,478.72Z"/><path class="cls-3" d="M267.52,463a3.93,3.93,0,0,1-3.9-4.1,4.14,4.14,0,0,1,4.29-4.16,4.36,4.36,0,0,1,4,4.18A4.15,4.15,0,0,1,267.52,463Z"/><path class="cls-3" d="M267.6,447.23a3.91,3.91,0,0,1-4-4.08,4.15,4.15,0,0,1,4-4.12,4.31,4.31,0,0,1,4.2,4.35A4.12,4.12,0,0,1,267.6,447.23Z"/><path class="cls-3" d="M156.87,264.52a3.91,3.91,0,0,1,3.77,4.18,4.15,4.15,0,0,1-4.1,4,4.35,4.35,0,0,1-4-4.47A4.12,4.12,0,0,1,156.87,264.52Z"/><path class="cls-3" d="M239.93,347.93a4.14,4.14,0,0,1-4.05,4,4.34,4.34,0,0,1-4.08-4.41,4.11,4.11,0,0,1,4.3-3.73A3.92,3.92,0,0,1,239.93,347.93Z"/><path class="cls-3" d="M255.63,379.74a3.9,3.9,0,0,1-4.08,3.88,4.11,4.11,0,0,1-4.05-4,4.32,4.32,0,0,1,4.34-4.14A4.11,4.11,0,0,1,255.63,379.74Z"/><path class="cls-3" d="M97.06,236.85A3.91,3.91,0,0,1,93,240.76a4.12,4.12,0,0,1-4.08-4,4.32,4.32,0,0,1,4.33-4.17A4.12,4.12,0,0,1,97.06,236.85Z"/><path class="cls-3" d="M267.55,423.09a4.1,4.1,0,0,1,4.26,3.77,4.34,4.34,0,0,1-4.12,4.37,4.13,4.13,0,0,1-4-4.05A3.9,3.9,0,0,1,267.55,423.09Z"/><path class="cls-3" d="M29.39,216.66a3.92,3.92,0,0,1,4.06,3.94,4.07,4.07,0,0,1-3.93,4.13,4.29,4.29,0,0,1-4.14-4A4.1,4.1,0,0,1,29.39,216.66Z"/><path class="cls-3" d="M13.72,216.66a3.91,3.91,0,0,1,4,4,4.08,4.08,0,0,1-4,4.09,4.29,4.29,0,0,1-4.1-4A4.1,4.1,0,0,1,13.72,216.66Z"/><path class="cls-3" d="M0,223.91a4.22,4.22,0,0,0,1.75-3.36A4,4,0,0,0,0,217.41Z"/><path class="cls-3" d="M204,296.3a4.19,4.19,0,0,1,4.13,3.92,4.06,4.06,0,0,1-3.94,4.06,3.92,3.92,0,0,1-4.06-3.87A4,4,0,0,1,204,296.3Z"/><path class="cls-3" d="M140.56,248.42a4.19,4.19,0,0,1,4,4,4.05,4.05,0,0,1-4,4,3.93,3.93,0,0,1-4-4A4,4,0,0,1,140.56,248.42Z"/><path class="cls-3" d="M49.57,220.59a4.2,4.2,0,0,1-4,4.1,4.05,4.05,0,0,1-4-4,3.94,3.94,0,0,1,3.9-4A4,4,0,0,1,49.57,220.59Z"/><path class="cls-3" d="M188.55,280.27a4.05,4.05,0,0,1,3.89,4.11,4.19,4.19,0,0,1-4.17,3.87,4,4,0,0,1-3.82-4.15A3.92,3.92,0,0,1,188.55,280.27Z"/><path class="cls-3" d="M267.64,407.43a4,4,0,0,1,4.09,3.9,4.19,4.19,0,0,1-4,4.09,4.05,4.05,0,0,1-4-4A3.94,3.94,0,0,1,267.64,407.43Z"/><path class="cls-3" d="M104.73,236.83a4.2,4.2,0,0,1,3.92-4.13,4.06,4.06,0,0,1,4.07,3.94,3.94,3.94,0,0,1-3.88,4.06A4,4,0,0,1,104.73,236.83Z"/><path class="cls-3" d="M168.36,268.51a4,4,0,1,1,4,4A4,4,0,0,1,168.36,268.51Z"/><path class="cls-3" d="M57.31,220.66a4,4,0,0,1,4-3.95,4,4,0,0,1,3.88,4.12,4.09,4.09,0,0,1-3.87,3.8A4,4,0,0,1,57.31,220.66Z"/><path class="cls-3" d="M223.8,316a4,4,0,0,1-4,4,3.95,3.95,0,0,1-.09-7.89A4,4,0,0,1,223.8,316Z"/><path class="cls-3" d="M251.78,359.59a3.93,3.93,0,0,1,3.77,4.18,4,4,0,0,1-3.9,3.72,4,4,0,0,1-4-4A4,4,0,0,1,251.78,359.59Z"/><path class="cls-3" d="M283.34,462.8a3.91,3.91,0,1,1,4-4A3.94,3.94,0,0,1,283.34,462.8Z"/><path class="cls-3" d="M267.64,399.22a3.91,3.91,0,1,1,4-4A4,4,0,0,1,267.64,399.22Z"/><path class="cls-3" d="M279.5,474.76a3.91,3.91,0,1,1,4.24,3.74A4,4,0,0,1,279.5,474.76Z"/><path class="cls-3" d="M283.45,486.77a3.91,3.91,0,1,1-4,4.05A4,4,0,0,1,283.45,486.77Z"/><path class="cls-3" d="M239.82,332a3.91,3.91,0,1,1-4.16-3.83A4,4,0,0,1,239.82,332Z"/><path class="cls-3" d="M73.43,220.67a3.91,3.91,0,0,1,4.07-3.92,4,4,0,0,1,3.74,3.88,3.91,3.91,0,0,1-7.81,0Z"/><path class="cls-3" d="M219.73,296.6a3.58,3.58,0,0,1,3.82,3.65,3.78,3.78,0,0,1-3.65,3.89,4,4,0,0,1-3.89-3.72A3.74,3.74,0,0,1,219.73,296.6Z"/><path class="cls-3" d="M140.61,233.05a3.54,3.54,0,0,1,3.61,3.87,3.76,3.76,0,0,1-3.59,3.61,4,4,0,0,1-3.88-3.77A3.75,3.75,0,0,1,140.61,233.05Z"/><path class="cls-3" d="M267.61,383.46a4,4,0,0,1-3.76-3.83,3.8,3.8,0,0,1,4.1-3.79,3.67,3.67,0,0,1,3.51,4A3.77,3.77,0,0,1,267.61,383.46Z"/><path class="cls-3" d="M124.7,232.92a3.78,3.78,0,0,1,4,3.62,3.86,3.86,0,0,1-3.53,4.07,3.94,3.94,0,0,1-4.18-3.83A3.82,3.82,0,0,1,124.7,232.92Z"/><path class="cls-3" d="M235.84,312.34a3.75,3.75,0,0,1,3.86,3.7,4,4,0,0,1-3.88,3.78,3.76,3.76,0,0,1-3.59-3.6A3.54,3.54,0,0,1,235.84,312.34Z"/><path class="cls-3" d="M251.61,344a4,4,0,0,1,3.86,3.72,3.81,3.81,0,0,1-4,3.91,3.69,3.69,0,0,1-3.62-3.86A3.8,3.8,0,0,1,251.61,344Z"/><path class="cls-3" d="M96.89,221.16A4,4,0,0,1,93,224.88a3.81,3.81,0,0,1-3.75-4.14,3.66,3.66,0,0,1,4-3.47A3.77,3.77,0,0,1,96.89,221.16Z"/><path class="cls-3" d="M152.79,252.31a3.76,3.76,0,0,1,3.9-3.68,3.81,3.81,0,0,1,3.81,3.79,4,4,0,0,1-4.11,3.91A3.88,3.88,0,0,1,152.79,252.31Z"/><path class="cls-3" d="M108.82,217.35a3.71,3.71,0,0,1,3.71,3.84,4,4,0,0,1-4,3.63,3.76,3.76,0,0,1-3.46-3.74A3.55,3.55,0,0,1,108.82,217.35Z"/><path class="cls-3" d="M10,205.06a3.82,3.82,0,0,1,3.62-3.94,4,4,0,0,1,3.93,3.68,3.74,3.74,0,0,1-3.67,3.86A3.6,3.6,0,0,1,10,205.06Z"/><path class="cls-3" d="M25.77,205.07a3.77,3.77,0,0,1,3.66-3.92A4,4,0,0,1,33.25,205a3.73,3.73,0,0,1-3.54,3.64A3.54,3.54,0,0,1,25.77,205.07Z"/><path class="cls-3" d="M45.45,201.16A3.74,3.74,0,0,1,49.23,205a3.52,3.52,0,0,1-3.44,3.68,3.78,3.78,0,0,1-4-3.53A4,4,0,0,1,45.45,201.16Z"/><path class="cls-3" d="M204.29,280.41a3.82,3.82,0,0,1,3.56,4,3.62,3.62,0,0,1-3.93,3.54A3.76,3.76,0,0,1,200.3,284,4,4,0,0,1,204.29,280.41Z"/><path class="cls-3" d="M283.37,423.25a3.77,3.77,0,0,1,3.8,3.72,3.69,3.69,0,0,1-3.57,3.91,3.82,3.82,0,0,1-4-3.86A3.94,3.94,0,0,1,283.37,423.25Z"/><path class="cls-3" d="M283.22,439.37a3.78,3.78,0,0,1,4,3.57,3.86,3.86,0,0,1-3.48,4.11,3.93,3.93,0,0,1-4.22-3.77A3.82,3.82,0,0,1,283.22,439.37Z"/><path class="cls-3" d="M188.32,264.71a3.74,3.74,0,0,1,3.81,3.73,3.58,3.58,0,0,1-3.66,3.81,3.78,3.78,0,0,1-3.89-3.66A4,4,0,0,1,188.32,264.71Z"/><path class="cls-3" d="M0,207.87A3.61,3.61,0,0,0,1.36,205,3.85,3.85,0,0,0,0,202Z"/><path class="cls-3" d="M279.62,411.31a4,4,0,0,1,3.94-3.71,3.79,3.79,0,0,1,3.53,4,3.54,3.54,0,0,1-3.68,3.44A3.74,3.74,0,0,1,279.62,411.31Z"/><path class="cls-3" d="M61.13,201.19a3.73,3.73,0,0,1,3.77,3.73,3.51,3.51,0,0,1-3.37,3.67,3.77,3.77,0,0,1-4-3.46A4,4,0,0,1,61.13,201.19Z"/><path class="cls-3" d="M168.68,252.43a3.51,3.51,0,0,1,3.78-3.63,3.75,3.75,0,0,1,3.63,3.5,4,4,0,0,1-3.69,3.9A3.72,3.72,0,0,1,168.68,252.43Z"/><path class="cls-3" d="M267.52,359.77a3.73,3.73,0,0,1,3.83,3.67,3.51,3.51,0,0,1-3.31,3.72,3.77,3.77,0,0,1-4.1-3.39A4,4,0,0,1,267.52,359.77Z"/><path class="cls-3" d="M251.66,328.35a4,4,0,0,1,3.72,3.87,3.77,3.77,0,0,1-4,3.54,3.54,3.54,0,0,1-3.45-3.61A3.73,3.73,0,0,1,251.66,328.35Z"/><path class="cls-3" d="M283.59,391.69a3.54,3.54,0,0,1,3.44,3.64,3.71,3.71,0,0,1-3.82,3.69,3.93,3.93,0,0,1-3.51-3.71A3.71,3.71,0,0,1,283.59,391.69Z"/><path class="cls-3" d="M299,487a3.72,3.72,0,0,1,3.71,3.43,3.55,3.55,0,0,1-3.54,3.91,3.75,3.75,0,0,1-3.78-3.37A3.91,3.91,0,0,1,299,487Z"/><path class="cls-3" d="M299.12,471a3.53,3.53,0,0,1,3.62,3.46,3.73,3.73,0,0,1-3.65,3.87,3.93,3.93,0,0,1-3.69-3.9A3.75,3.75,0,0,1,299.12,471Z"/><path class="cls-3" d="M77.34,201.29A3.8,3.8,0,0,1,81,204.85a3.68,3.68,0,0,1-3.83,3.69,3.55,3.55,0,0,1-3.41-3.69A3.69,3.69,0,0,1,77.34,201.29Z"/><path class="cls-3" d="M219.76,280.58a3.67,3.67,0,0,1,3.65,3.5,3.53,3.53,0,0,1-3.34,3.74,3.69,3.69,0,0,1-3.9-3.62A3.79,3.79,0,0,1,219.76,280.58Z"/><path class="cls-3" d="M271.26,347.87a3.55,3.55,0,0,1-3.53,3.51,3.61,3.61,0,0,1-3.61-3.81,3.72,3.72,0,0,1,3.73-3.36A3.65,3.65,0,0,1,271.26,347.87Z"/><path class="cls-3" d="M156.69,233.15a3.69,3.69,0,0,1,3.59,3.56,3.83,3.83,0,0,1-3.53,3.68,3.69,3.69,0,0,1-3.73-3.81A3.55,3.55,0,0,1,156.69,233.15Z"/><path class="cls-3" d="M204.25,264.93a3.64,3.64,0,0,1,3.43,3.63,3.56,3.56,0,0,1-3.87,3.52,3.63,3.63,0,0,1-3.27-3.78A3.7,3.7,0,0,1,204.25,264.93Z"/><path class="cls-3" d="M124.7,217.44a3.55,3.55,0,0,1,3.72,3.37,3.69,3.69,0,0,1-3.66,3.87,3.78,3.78,0,0,1-3.58-3.61A3.67,3.67,0,0,1,124.7,217.44Z"/><path class="cls-3" d="M232.35,300.41a3.58,3.58,0,0,1,3.38-3.66,3.64,3.64,0,0,1,3.77,3.66,3.68,3.68,0,0,1-3.59,3.5A3.62,3.62,0,0,1,232.35,300.41Z"/><path class="cls-3" d="M283.46,376a3.56,3.56,0,0,1,3.51,3.53,3.6,3.6,0,0,1-3.8,3.61,3.7,3.7,0,0,1-3.36-3.72A3.65,3.65,0,0,1,283.46,376Z"/><path class="cls-3" d="M89.48,204.8a3.58,3.58,0,1,1,3.32,3.71A3.57,3.57,0,0,1,89.48,204.8Z"/><path class="cls-3" d="M295.46,459a3.67,3.67,0,0,1,3.5-3.65,3.55,3.55,0,0,1,3.75,3.34,3.69,3.69,0,0,1-3.63,3.9A3.79,3.79,0,0,1,295.46,459Z"/><path class="cls-3" d="M302.67,443.32a3.62,3.62,0,0,1-3.6,3.46,3.58,3.58,0,1,1,.28-7.16A3.57,3.57,0,0,1,302.67,443.32Z"/><path class="cls-3" d="M140.36,217.5a3.53,3.53,0,1,1,.37,7.05,3.53,3.53,0,0,1-.37-7.05Z"/><path class="cls-3" d="M248.08,315.93a3.53,3.53,0,0,1,7,.17,3.51,3.51,0,0,1-3.6,3.45A3.56,3.56,0,0,1,248.08,315.93Z"/><path class="cls-3" d="M191.94,252.49a3.53,3.53,0,1,1-3.47-3.58A3.53,3.53,0,0,1,191.94,252.49Z"/><path class="cls-3" d="M299.15,423.58a3.53,3.53,0,1,1-3.55,3.5A3.5,3.5,0,0,1,299.15,423.58Z"/><path class="cls-3" d="M17.18,189.09a3.46,3.46,0,0,1-3.37,3.65,3.56,3.56,0,0,1-3.56-3.5,3.46,3.46,0,0,1,3.23-3.42A3.35,3.35,0,0,1,17.18,189.09Z"/><path class="cls-3" d="M0,191.8A3.5,3.5,0,0,0,1.16,189,3.46,3.46,0,0,0,0,186.68Z"/><path class="cls-3" d="M264.32,332.11a3.24,3.24,0,0,1,3.23-3.37,3.41,3.41,0,0,1,3.62,3.4,3.58,3.58,0,0,1-3.66,3.43A3.43,3.43,0,0,1,264.32,332.11Z"/><path class="cls-3" d="M32.89,189.21a3.47,3.47,0,0,1-3.49,3.53A3.57,3.57,0,0,1,26,189.11a3.47,3.47,0,0,1,3.34-3.31A3.37,3.37,0,0,1,32.89,189.21Z"/><path class="cls-3" d="M283.4,360.14a3.43,3.43,0,0,1,3.47,3.19,3.57,3.57,0,0,1-3.42,3.66,3.4,3.4,0,0,1-3.41-3.61A3.25,3.25,0,0,1,283.4,360.14Z"/><path class="cls-3" d="M112.18,204.85a3.46,3.46,0,0,1-3.43,3.6,3.56,3.56,0,0,1-3.5-3.56,3.46,3.46,0,0,1,3.28-3.37A3.35,3.35,0,0,1,112.18,204.85Z"/><path class="cls-3" d="M168.83,236.67a3.56,3.56,0,0,1,3.62-3.43,3.45,3.45,0,0,1,3.3,3.71,3.35,3.35,0,0,1-3.39,3.22A3.48,3.48,0,0,1,168.83,236.67Z"/><path class="cls-3" d="M49,189.15a3.57,3.57,0,0,1-3.53,3.55,3.44,3.44,0,0,1-3.32-3.34,3.28,3.28,0,0,1,3.11-3.49A3.43,3.43,0,0,1,49,189.15Z"/><path class="cls-3" d="M302.62,411.46a3.58,3.58,0,0,1-3.63,3.43,3.44,3.44,0,0,1-3.29-3.71,3.34,3.34,0,0,1,3.39-3.22A3.49,3.49,0,0,1,302.62,411.46Z"/><path class="cls-3" d="M216.49,268.65a3.23,3.23,0,0,1,3.16-3.45,3.39,3.39,0,0,1,3.6,3.05,3.57,3.57,0,0,1-3.4,3.71A3.38,3.38,0,0,1,216.49,268.65Z"/><path class="cls-3" d="M156.59,217.59A3.4,3.4,0,0,1,160,220.9a3.23,3.23,0,0,1-3.15,3.45,3.4,3.4,0,0,1-3.63-3.41A3.64,3.64,0,0,1,156.59,217.59Z"/><path class="cls-3" d="M236,280.91a3.21,3.21,0,0,1,3.2,3.4,3.38,3.38,0,0,1-3.31,3.36,3.57,3.57,0,0,1-3.44-3.67A3.37,3.37,0,0,1,236,280.91Z"/><path class="cls-3" d="M57.93,189.11a3.22,3.22,0,0,1,3.4-3.21,3.38,3.38,0,0,1,3.35,3.32A3.56,3.56,0,0,1,61,192.66,3.38,3.38,0,0,1,57.93,189.11Z"/><path class="cls-3" d="M302.55,395.36a3.39,3.39,0,0,1-3.39,3.29,3.21,3.21,0,0,1-3.37-3.23,3.39,3.39,0,0,1,3.5-3.54A3.63,3.63,0,0,1,302.55,395.36Z"/><path class="cls-3" d="M200.82,252.33a3.38,3.38,0,0,1,3.32-3.28,3.57,3.57,0,0,1,3.36,3.67,3.37,3.37,0,0,1-3.56,3A3.21,3.21,0,0,1,200.82,252.33Z"/><path class="cls-3" d="M299.19,376.24a3.6,3.6,0,0,1,3.28,3.42,3.34,3.34,0,0,1-3.41,3.2,3.18,3.18,0,0,1-3.21-3.33A3.38,3.38,0,0,1,299.19,376.24Z"/><path class="cls-3" d="M251.74,296.93a3.36,3.36,0,0,1,3.17,3.41,3.18,3.18,0,0,1-3.26,3.27,3.35,3.35,0,0,1-3.42-3.53A3.59,3.59,0,0,1,251.74,296.93Z"/><path class="cls-3" d="M311.85,443.3a3.57,3.57,0,0,1,3.22-3.47,3.36,3.36,0,0,1,3.39,3.22,3.19,3.19,0,0,1-3.15,3.39A3.34,3.34,0,0,1,311.85,443.3Z"/><path class="cls-3" d="M280.15,347.73a3.2,3.2,0,0,1,3.37-3.18,3.38,3.38,0,0,1,3.25,3.37,3.59,3.59,0,0,1-3.45,3.24A3.33,3.33,0,0,1,280.15,347.73Z"/><path class="cls-3" d="M74,189.07A3.34,3.34,0,0,1,77.4,186a3.19,3.19,0,0,1,3.2,3.67,3.32,3.32,0,0,1-3.55,3A3.58,3.58,0,0,1,74,189.07Z"/><path class="cls-3" d="M315.32,455.5a3.37,3.37,0,0,1,3.17,3.42,3.2,3.2,0,0,1-3.63,3.25,3.34,3.34,0,0,1-3-3.52A3.58,3.58,0,0,1,315.32,455.5Z"/><path class="cls-3" d="M315.21,471.21a3.35,3.35,0,0,1,3.28,3.31,3.19,3.19,0,0,1-3.15,3.37,3.38,3.38,0,0,1-3.54-3.42A3.62,3.62,0,0,1,315.21,471.21Z"/><path class="cls-3" d="M311.8,490.62a3.36,3.36,0,0,1,3.36-3.23,3.18,3.18,0,0,1,3.33,3.2,3.36,3.36,0,0,1-3.47,3.48A3.62,3.62,0,0,1,311.8,490.62Z"/><path class="cls-3" d="M128.23,205a3.64,3.64,0,0,1-3.3,3.39,3.38,3.38,0,0,1-3.38-3.58,3.19,3.19,0,0,1,3.39-3.12A3.39,3.39,0,0,1,128.23,205Z"/><path class="cls-3" d="M188.26,233.39a3.56,3.56,0,0,1,3.5,3.17,3.35,3.35,0,0,1-3.17,3.43,3.18,3.18,0,0,1-3.43-3.1A3.34,3.34,0,0,1,188.26,233.39Z"/><path class="cls-3" d="M92.88,186a3.16,3.16,0,0,1,3.38,3.16A3.3,3.3,0,0,1,93,192.54a3.51,3.51,0,0,1-3.24-3A3.27,3.27,0,0,1,92.88,186Z"/><path class="cls-3" d="M318.42,427.16a3.29,3.29,0,0,1-3.37,3.23,3.45,3.45,0,0,1-3.13-3.51,3.29,3.29,0,0,1,3.22-3A3.17,3.17,0,0,1,318.42,427.16Z"/><path class="cls-3" d="M137.32,204.87a3.17,3.17,0,0,1,3.4-3.14,3.29,3.29,0,0,1,3.11,3.12,3.48,3.48,0,0,1-3.27,3.39A3.29,3.29,0,0,1,137.32,204.87Z"/><path class="cls-3" d="M264.48,316.1a3.29,3.29,0,0,1,3.23-3.37,3.48,3.48,0,0,1,3.28,3.39,3.28,3.28,0,0,1-3.11,3.12A3.16,3.16,0,0,1,264.48,316.1Z"/><path class="cls-3" d="M105.53,189.13a3.23,3.23,0,0,1,3.51-3.07,3.16,3.16,0,0,1,2.9,3.28,3.24,3.24,0,0,1-3.11,3.12A3.33,3.33,0,0,1,105.53,189.13Z"/><path class="cls-3" d="M175.52,220.92a3.18,3.18,0,0,1-3.26,3.3,3.24,3.24,0,0,1-3.15-3.08,3.33,3.33,0,0,1,3.29-3.33A3.23,3.23,0,0,1,175.52,220.92Z"/><path class="cls-3" d="M10.52,173.12A3.32,3.32,0,0,1,14,170a3.22,3.22,0,0,1,3,3.24,3.16,3.16,0,0,1-3.41,3.15A3.26,3.26,0,0,1,10.52,173.12Z"/><path class="cls-3" d="M29.57,170A3.15,3.15,0,1,1,26.32,173,3.16,3.16,0,0,1,29.57,170Z"/><path class="cls-3" d="M48.68,173A3.15,3.15,0,1,1,45.44,170,3.13,3.13,0,0,1,48.68,173Z"/><path class="cls-3" d="M0,175.24a3.18,3.18,0,0,0,.81-2A3.1,3.1,0,0,0,0,171.05Z"/><path class="cls-3" d="M283.4,329a3.15,3.15,0,1,1-3.14,3.06A3.15,3.15,0,0,1,283.4,329Z"/><path class="cls-3" d="M299.1,360.37a3.15,3.15,0,1,1-3.14,3.06A3.16,3.16,0,0,1,299.1,360.37Z"/><path class="cls-3" d="M315.12,408.24a3.15,3.15,0,1,1,0,6.3,3.13,3.13,0,0,1-3-3.16A3.16,3.16,0,0,1,315.12,408.24Z"/><path class="cls-3" d="M219.84,249.3a3.16,3.16,0,0,1,3.14,3.07,3.16,3.16,0,1,1-3.14-3.07Z"/><path class="cls-3" d="M235.81,265.37a3.16,3.16,0,1,1-3.05,3.17A3.18,3.18,0,0,1,235.81,265.37Z"/><path class="cls-3" d="M251.71,281.08a3.15,3.15,0,1,1-.36,6.28,3.11,3.11,0,0,1-2.86-3.31A3.14,3.14,0,0,1,251.71,281.08Z"/><path class="cls-3" d="M315.34,392.27a3.07,3.07,0,0,1,3,3.19,3.19,3.19,0,0,1-3.23,3,3.11,3.11,0,0,1-2.93-3.23A3,3,0,0,1,315.34,392.27Z"/><path class="cls-3" d="M330.91,487.6a3.21,3.21,0,0,1,3.08,3,3,3,0,0,1-3.06,3,2.88,2.88,0,0,1-3-3A3,3,0,0,1,330.91,487.6Z"/><path class="cls-3" d="M334,474.47a3.21,3.21,0,0,1-2.92,3.2,3,3,0,0,1-3.15-2.91,2.88,2.88,0,0,1,2.85-3.15A3.09,3.09,0,0,1,334,474.47Z"/><path class="cls-3" d="M64.3,173a3.12,3.12,0,0,1-2.94,3.24,3.2,3.2,0,0,1-3.22-3,3.06,3.06,0,0,1,3-3.18A3,3,0,0,1,64.3,173Z"/><path class="cls-3" d="M77.23,170.16a3.1,3.1,0,0,1,3.19,2.89,3.22,3.22,0,0,1-3,3.18,3,3,0,0,1-3.12-2.94A2.89,2.89,0,0,1,77.23,170.16Z"/><path class="cls-3" d="M124.81,186.16a3,3,0,0,1,3,3.06,2.89,2.89,0,0,1-3,3,3,3,0,0,1-3.07-3A3.2,3.2,0,0,1,124.81,186.16Z"/><path class="cls-3" d="M204.1,233.69a3,3,0,0,1,3.06,3.06,3.08,3.08,0,0,1-3,3.1,3.18,3.18,0,0,1-3.11-3.1A3.09,3.09,0,0,1,204.1,233.69Z"/><path class="cls-3" d="M296,347.81a3.19,3.19,0,0,1,3.05-3.07,3,3,0,0,1,3,3.05,2.87,2.87,0,0,1-3,3A3,3,0,0,1,296,347.81Z"/><path class="cls-3" d="M156.8,201.84a3.19,3.19,0,0,1,2.94,3.25,3.13,3.13,0,0,1-3.27,2.91,3,3,0,0,1-2.89-3.22A3.06,3.06,0,0,1,156.8,201.84Z"/><path class="cls-3" d="M270.75,300.22a3.14,3.14,0,0,1-3,3.22,3.19,3.19,0,0,1-3.2-3,3,3,0,0,1,3-3.16A3,3,0,0,1,270.75,300.22Z"/><path class="cls-3" d="M185.33,221a3,3,0,0,1,3.07-3,2.89,2.89,0,0,1,3,3,3,3,0,0,1-3,3.06A3.2,3.2,0,0,1,185.33,221Z"/><path class="cls-3" d="M248.72,268.59a3,3,0,0,1,3-3,3.23,3.23,0,0,1,2.88,2.89,3,3,0,0,1-3.08,3A2.79,2.79,0,0,1,248.72,268.59Z"/><path class="cls-3" d="M330.86,456a3,3,0,0,1,3.08,3,3.21,3.21,0,0,1-3.14,3,3,3,0,0,1-2.83-2.88A2.83,2.83,0,0,1,330.86,456Z"/><path class="cls-3" d="M330.86,440.25a3,3,0,0,1,3.08,3,3.21,3.21,0,0,1-3.14,3,3,3,0,0,1-2.83-2.87A2.83,2.83,0,0,1,330.86,440.25Z"/><path class="cls-3" d="M333.91,427.27a3,3,0,0,1-3.35,2.71,2.79,2.79,0,0,1-2.54-3.07,3,3,0,0,1,2.89-2.8A3.2,3.2,0,0,1,333.91,427.27Z"/><path class="cls-3" d="M280.36,315.92a3.08,3.08,0,0,1,3.24-2.84,2.84,2.84,0,0,1,2.75,2.9,3,3,0,0,1-3,3.08A3.21,3.21,0,0,1,280.36,315.92Z"/><path class="cls-3" d="M140.36,186.25a3,3,0,0,1,3.06,2.62,2.83,2.83,0,0,1-2.73,3.27,3,3,0,0,1-3.13-2.57A3.18,3.18,0,0,1,140.36,186.25Z"/><path class="cls-3" d="M315.31,376.67a3,3,0,0,1,2.92,3.14,3.2,3.2,0,0,1-3.3,2.83,3,3,0,0,1-2.67-3A2.83,2.83,0,0,1,315.31,376.67Z"/><path class="cls-3" d="M220,233.84a2.79,2.79,0,0,1,2.74,2.89,3,3,0,0,1-3.07,3,3.24,3.24,0,0,1-2.82-2.95A3,3,0,0,1,220,233.84Z"/><path class="cls-3" d="M172.42,202a3.2,3.2,0,0,1,2.9,3.24,3,3,0,0,1-3.06,2.64,2.82,2.82,0,0,1-2.82-3.17A3,3,0,0,1,172.42,202Z"/><path class="cls-3" d="M90.14,173a2.81,2.81,0,0,1,2.9-2.74,3,3,0,0,1,3,3.08,3.22,3.22,0,0,1-3,2.81A3,3,0,0,1,90.14,173Z"/><path class="cls-3" d="M233,252.27a2.8,2.8,0,0,1,2.92-2.72,3,3,0,0,1,3,3.1,3.24,3.24,0,0,1-3,2.79A3,3,0,0,1,233,252.27Z"/><path class="cls-3" d="M111.68,173.29a3.17,3.17,0,0,1-3,2.81,3,3,0,0,1-2.82-3.24,2.8,2.8,0,0,1,3.08-2.55A2.94,2.94,0,0,1,111.68,173.29Z"/><path class="cls-3" d="M204.2,218.17A2.8,2.8,0,0,1,207,221a3,3,0,0,1-2.77,2.93,3.19,3.19,0,0,1-3-3.12A3,3,0,0,1,204.2,218.17Z"/><path class="cls-3" d="M318.13,363.34a3,3,0,0,1-2.66,3,2.8,2.8,0,0,1-3.11-2.5,3,3,0,0,1,2.76-3.29A3.18,3.18,0,0,1,318.13,363.34Z"/><path class="cls-3" d="M299.14,329.17A2.93,2.93,0,0,1,302,332a2.81,2.81,0,0,1-2.71,2.94,3,3,0,0,1-3.08-3A3.15,3.15,0,0,1,299.14,329.17Z"/><path class="cls-3" d="M267.55,281.3a2.94,2.94,0,0,1,3,2.69,2.81,2.81,0,0,1-2.53,3.09,3,3,0,0,1-3.27-2.8A3.18,3.18,0,0,1,267.55,281.3Z"/><path class="cls-3" d="M330.85,408.45a3.18,3.18,0,0,1,3,2.78,3,3,0,0,1-3,3,2.78,2.78,0,0,1-2.74-2.89A3,3,0,0,1,330.85,408.45Z"/><path class="cls-3" d="M45.48,154.63a2.82,2.82,0,0,1,2.89,2.77,2.89,2.89,0,0,1-2.77,2.92,3,3,0,0,1-2.92-2.82A2.87,2.87,0,0,1,45.48,154.63Z"/><path class="cls-3" d="M159.49,189.35a2.89,2.89,0,0,1-3,2.71,2.82,2.82,0,0,1-2.72-2.93,2.86,2.86,0,0,1,2.93-2.75A3,3,0,0,1,159.49,189.35Z"/><path class="cls-3" d="M13.73,154.63a2.86,2.86,0,0,1,2.89,2.79,3,3,0,0,1-2.84,2.89,2.86,2.86,0,0,1-2.85-2.83A2.81,2.81,0,0,1,13.73,154.63Z"/><path class="cls-3" d="M286.23,300.24a2.89,2.89,0,0,1-2.74,2.95,3,3,0,0,1-2.94-2.79,2.85,2.85,0,0,1,2.77-2.9A2.81,2.81,0,0,1,286.23,300.24Z"/><path class="cls-3" d="M29.29,154.62a2.94,2.94,0,0,1,3.05,2.65,3.07,3.07,0,0,1-2.7,3,2.85,2.85,0,0,1-.35-5.68Z"/><path class="cls-3" d="M61.41,154.66a2.85,2.85,0,0,1,2.62,3,2.8,2.8,0,0,1-3.11,2.5,2.77,2.77,0,0,1-2.45-2.83A2.81,2.81,0,0,1,61.41,154.66Z"/><path class="cls-3" d="M122.06,173.17a2.8,2.8,0,0,1,2.84-2.8,2.79,2.79,0,1,1-2.84,2.8Z"/><path class="cls-3" d="M188.57,202.16a2.79,2.79,0,1,1-2.93,2.74A2.81,2.81,0,0,1,188.57,202.16Z"/><path class="cls-3" d="M331,392.54a2.77,2.77,0,1,1-2.91,2.73A2.8,2.8,0,0,1,331,392.54Z"/><path class="cls-3" d="M77.41,154.71a2.69,2.69,0,0,1,2.57,3,2.59,2.59,0,0,1-2.76,2.41,2.69,2.69,0,0,1-2.62-2.6A2.79,2.79,0,0,1,77.41,154.71Z"/><path class="cls-3" d="M254.29,252.5a2.59,2.59,0,0,1-2.58,2.61,2.72,2.72,0,0,1-2.84-2.76,2.83,2.83,0,0,1,2.63-2.64A2.69,2.69,0,0,1,254.29,252.5Z"/><path class="cls-3" d="M315.23,345.15a2.58,2.58,0,0,1,2.63,2.55,2.72,2.72,0,0,1-2.73,2.86,2.85,2.85,0,0,1-2.67-2.6A2.69,2.69,0,0,1,315.23,345.15Z"/><path class="cls-3" d="M299.24,313.29a2.8,2.8,0,0,1,2.6,3,2.7,2.7,0,0,1-2.81,2.39,2.58,2.58,0,0,1-2.56-3A2.66,2.66,0,0,1,299.24,313.29Z"/><path class="cls-3" d="M238.58,236.79A2.59,2.59,0,0,1,236,239.4a2.7,2.7,0,0,1-2.84-2.75,2.83,2.83,0,0,1,2.61-2.65A2.7,2.7,0,0,1,238.58,236.79Z"/><path class="cls-3" d="M344.31,490.72A2.59,2.59,0,0,1,346.8,488a2.67,2.67,0,0,1,2.93,2.65,2.78,2.78,0,0,1-2.9,2.73A2.72,2.72,0,0,1,344.31,490.72Z"/><path class="cls-3" d="M349.73,474.6a2.66,2.66,0,0,1-2.56,2.66,2.62,2.62,0,0,1-2.86-2.69,2.72,2.72,0,0,1,2.52-2.7A2.79,2.79,0,0,1,349.73,474.6Z"/><path class="cls-3" d="M349.68,443.27a2.68,2.68,0,0,1-2.69,2.52,2.48,2.48,0,0,1-2.6-2.54,2.64,2.64,0,0,1,2.81-2.75A2.8,2.8,0,0,1,349.68,443.27Z"/><path class="cls-3" d="M172.16,186.64a2.49,2.49,0,0,1,2.76,2.37,2.65,2.65,0,0,1-2.27,2.9,2.79,2.79,0,0,1-3-2.59A2.69,2.69,0,0,1,172.16,186.64Z"/><path class="cls-3" d="M267.68,265.92a2.68,2.68,0,0,1,2.71,2.49,2.78,2.78,0,0,1-2.82,2.81,2.66,2.66,0,0,1-2.47-2.73A2.5,2.5,0,0,1,267.68,265.92Z"/><path class="cls-3" d="M347,424.55a2.68,2.68,0,0,1,2.62,2.59,2.85,2.85,0,0,1-2.65,2.62,2.67,2.67,0,0,1-2.55-2.66A2.45,2.45,0,0,1,347,424.55Z"/><path class="cls-3" d="M204.16,202.39a2.7,2.7,0,0,1,2.62,2.6,2.87,2.87,0,0,1-2.67,2.61,2.66,2.66,0,0,1-2.54-2.66A2.46,2.46,0,0,1,204.16,202.39Z"/><path class="cls-3" d="M286.06,284.24a2.85,2.85,0,0,1-2.62,2.65,2.69,2.69,0,0,1-2.59-2.62,2.47,2.47,0,0,1,2.56-2.59A2.67,2.67,0,0,1,286.06,284.24Z"/><path class="cls-3" d="M344.38,458.89a2.68,2.68,0,0,1,2.52-2.69,2.78,2.78,0,0,1,2.78,2.84,2.68,2.68,0,0,1-2.75,2.46A2.51,2.51,0,0,1,344.38,458.89Z"/><path class="cls-3" d="M137.93,173a2.71,2.71,0,0,1,2.66-2.57,2.81,2.81,0,0,1,2.63,3,2.66,2.66,0,0,1-2.88,2.3A2.51,2.51,0,0,1,137.93,173Z"/><path class="cls-3" d="M222.52,221.11a2.69,2.69,0,0,1-2.69,2.53,2.5,2.5,0,0,1-2.6-2.55,2.65,2.65,0,0,1,2.81-2.75A2.81,2.81,0,0,1,222.52,221.11Z"/><path class="cls-3" d="M90.34,157.32a2.84,2.84,0,0,1,2.7-2.57,2.66,2.66,0,0,1,2.59,3A2.49,2.49,0,0,1,92.82,160,2.67,2.67,0,0,1,90.34,157.32Z"/><path class="cls-3" d="M330.74,376.91a2.65,2.65,0,0,1,2.75,2.44,2.49,2.49,0,0,1-2.27,2.84,2.67,2.67,0,0,1-3-2.55A2.82,2.82,0,0,1,330.74,376.91Z"/><path class="cls-3" d="M315.26,329.56a2.44,2.44,0,0,1,2.49,2.64,2.69,2.69,0,0,1-2.65,2.56,2.82,2.82,0,0,1-2.55-2.72A2.65,2.65,0,0,1,315.26,329.56Z"/><path class="cls-3" d="M299.23,297.71a2.81,2.81,0,0,1,2.47,2.78,2.57,2.57,0,0,1-2.86,2.31,2.31,2.31,0,0,1-2.22-2.5A2.63,2.63,0,0,1,299.23,297.71Z"/><path class="cls-3" d="M108.68,154.84a2.65,2.65,0,0,1,2.57,2.63,2.31,2.31,0,0,1-2.27,2.46,2.57,2.57,0,0,1-2.82-2.35A2.81,2.81,0,0,1,108.68,154.84Z"/><path class="cls-3" d="M328.32,363.42a2.57,2.57,0,0,1,2.79-2.38,2.3,2.3,0,0,1,2.29,2.43,2.64,2.64,0,0,1-2.54,2.66A2.8,2.8,0,0,1,328.32,363.42Z"/><path class="cls-3" d="M349.59,411.4a2.8,2.8,0,0,1-2.67,2.59,2.58,2.58,0,0,1-2.42-2.76,2.3,2.3,0,0,1,2.39-2.33A2.62,2.62,0,0,1,349.59,411.4Z"/><path class="cls-3" d="M45.68,138.05c1.06,1.45,2,2.27,2.3,3.27.36,1.24-1.21,2.62-2.54,2.56s-2.73-1.47-2.27-2.78C43.52,140.13,44.53,139.39,45.68,138.05Z"/><path class="cls-3" d="M254,237.53a7.48,7.48,0,0,1-2.38,1.59c-1.32.34-2.69-1.15-2.55-2.5a2.51,2.51,0,0,1,2.43-2.39C252.9,234.09,254.13,235.44,254,237.53Z"/><path class="cls-3" d="M29.39,138.05c1.12,1.36,2.12,2.12,2.44,3.1.44,1.3-.93,2.7-2.31,2.74s-2.87-1.38-2.5-2.62C27.33,140.27,28.3,139.47,29.39,138.05Z"/><path class="cls-3" d="M190.9,188.48c.08,2-1.23,3.39-2.55,3.26a2.41,2.41,0,0,1-2.39-2.38c-.1-1.46,1.13-2.86,2.51-2.51A8,8,0,0,1,190.9,188.48Z"/><path class="cls-3" d="M16.2,140.64c0,2.09-1.24,3.39-2.59,3.23a2.51,2.51,0,0,1-2.37-2.45c-.12-1.36,1.31-2.81,2.63-2.43A7.57,7.57,0,0,1,16.2,140.64Z"/><path class="cls-3" d="M154.08,173.75c0-2,1.44-3.3,2.76-3.08a2.41,2.41,0,0,1,2.24,2.53,2.23,2.23,0,0,1-2.67,2.33A7.9,7.9,0,0,1,154.08,173.75Z"/><path class="cls-3" d="M283.18,265.22c1.19,1.38,2.27,2.11,2.54,3.07.38,1.34-.54,2.35-2,2.61s-3-.94-2.69-2.29C281.27,267.6,282.19,266.75,283.18,265.22Z"/><path class="cls-3" d="M125,154.15c1,1.51,2,2.39,2.12,3.38.18,1.34-.83,2.27-2.3,2.33s-2.8-1.3-2.35-2.63C122.83,156.26,123.87,155.52,125,154.15Z"/><path class="cls-3" d="M315.42,312.72c1,1.53,1.92,2.39,2.11,3.4.27,1.39-1.25,2.53-2.68,2.28s-2.33-1.27-2-2.6C313.15,314.84,314.24,314.1,315.42,312.72Z"/><path class="cls-3" d="M271,252.46c-1.44,1.07-2.24,2.06-3.23,2.32-1.35.37-2.61-1.09-2.47-2.52a2.13,2.13,0,0,1,2.47-2.16C268.75,250.29,269.56,251.36,271,252.46Z"/><path class="cls-3" d="M330.71,344.51c1.17,1.38,2.19,2.12,2.52,3.09.45,1.3-.94,2.71-2.36,2.63s-2.5-1-2.31-2.35C328.7,346.89,329.7,346,330.71,344.51Z"/><path class="cls-3" d="M347.2,392c1,1.52,2,2.39,2.12,3.38.17,1.35-.83,2.28-2.31,2.34s-2.8-1.3-2.35-2.63C345,394.12,346,393.39,347.2,392Z"/><path class="cls-3" d="M57.94,141.35c1.46-1.08,2.26-2.06,3.25-2.32,1.34-.36,2.63,1.11,2.46,2.53s-1.12,2.43-2.48,2.13C60.19,143.48,59.39,142.45,57.94,141.35Z"/><path class="cls-3" d="M235.68,217.73c1.18,1.37,2.22,2.1,2.55,3.07.46,1.33-.89,2.69-2.33,2.64s-2.49-1-2.32-2.32C233.71,220.13,234.69,219.25,235.68,217.73Z"/><path class="cls-3" d="M295.84,284.52c1.4-1.21,2.12-2.29,3.08-2.55,1.37-.37,2.31.62,2.45,2s-.65,2.55-2.06,2.43C298.33,286.36,297.42,285.44,295.84,284.52Z"/><path class="cls-3" d="M172.18,176.45c-1-1.55-1.93-2.41-2.06-3.39-.19-1.4.87-2.25,2.33-2.17s2.46,1,2.14,2.36C174.38,174.21,173.33,175,172.18,176.45Z"/><path class="cls-3" d="M216.54,205.17c1.43-1.18,2.18-2.24,3.13-2.49,1.39-.35,2.3.67,2.42,2.09s-.7,2.54-2.11,2.38C219,207.05,218.11,206.12,216.54,205.17Z"/><path class="cls-3" d="M77.47,138.07c1,1.56,2,2.43,2.13,3.4.19,1.41-.94,2.21-2.36,2.17s-2.42-1-2.11-2.38C75.35,140.31,76.36,139.53,77.47,138.07Z"/><path class="cls-3" d="M343.69,379.78c1.45-1.13,2.21-2.15,3.17-2.37,1.38-.34,2.34.63,2.4,2.08s-.73,2.56-2.14,2.38C346.14,381.75,345.26,380.78,343.69,379.78Z"/><path class="cls-3" d="M365,489.92c-.06,2.08-.77,3-2.23,3a2.13,2.13,0,0,1-2.42-2.18c0-1.42.83-2.51,2.2-2.35C363.52,488.53,364.38,489.51,365,489.92Z"/><path class="cls-3" d="M359.39,474.61c1.51-1.06,2.33-2,3.29-2.21,1.4-.26,2.29.75,2.28,2.2s-.85,2.51-2.25,2.27C361.74,476.7,360.91,475.69,359.39,474.61Z"/><path class="cls-3" d="M362.19,456.5c2.06.28,2.87,1.09,2.77,2.54a2.1,2.1,0,0,1-2.41,2.18c-1.42-.11-2.43-1.08-2.12-2.43C360.64,457.85,361.71,457.09,362.19,456.5Z"/><path class="cls-3" d="M315.08,297.34c1.08,1.25,2,1.9,2.31,2.76.4,1.08-.9,2.41-2.11,2.47a2,2,0,0,1-2.18-2.33C313.32,299.36,314.16,298.64,315.08,297.34Z"/><path class="cls-3" d="M330.61,328.83c1.21,1.47,2.19,2.21,2.52,3.17.4,1.15-.87,2.32-2.18,2.32s-2.31-.7-2.18-1.93C328.87,331.4,329.72,330.48,330.61,328.83Z"/><path class="cls-3" d="M203.47,186.93c1.91,0,2.94,1.09,2.86,2.4a2,2,0,0,1-2.07,2.12c-1.33.11-2.67-.94-2.37-2.14A7.71,7.71,0,0,1,203.47,186.93Z"/><path class="cls-3" d="M142.75,157.57a2.24,2.24,0,0,1-2.42,2.18,2.38,2.38,0,0,1-2.08-2.57,2.16,2.16,0,0,1,2.28-1.94A2.11,2.11,0,0,1,142.75,157.57Z"/><path class="cls-3" d="M92.79,138.09c1.19,1.48,2.16,2.23,2.48,3.2.38,1.16-.9,2.3-2.22,2.29s-2.29-.74-2.15-2C91,140.63,91.87,139.72,92.79,138.09Z"/><path class="cls-3" d="M343.86,364.12c1.31-1.1,2-2,2.83-2.31a2,2,0,0,1,2.45,2c0,1.3-.7,2.34-1.86,2.25C346.3,366,345.4,365,343.86,364.12Z"/><path class="cls-3" d="M267.81,233.77c.92,1.29,1.76,2,2,2.88a2.05,2.05,0,0,1-2.17,2.34c-1.21-.06-2.52-1.39-2.12-2.46C265.83,235.66,266.73,235,267.81,233.77Z"/><path class="cls-3" d="M362.71,441a2.11,2.11,0,0,1,2.19,2.36,2.07,2.07,0,0,1-2.07,2.14,2.25,2.25,0,1,1-.12-4.5Z"/><path class="cls-3" d="M364.83,427.86a6.73,6.73,0,0,1-2.1,1.34c-1.24.28-2.62-1.08-2.2-2.2a3.87,3.87,0,0,1,2.11-2.06C363.79,424.55,364.91,425.88,364.83,427.86Z"/><path class="cls-3" d="M188.36,170.2c1,1.3,1.88,2,2.09,2.85.31,1.25-.64,2-1.83,2.28s-2.64-1.1-2.33-2.19C186.53,172.26,187.38,171.54,188.36,170.2Z"/><path class="cls-3" d="M283.36,249.49c1,1.3,1.87,2,2.09,2.85.3,1.25-.64,2-1.83,2.28s-2.64-1.1-2.34-2.2C281.53,251.54,282.37,250.83,283.36,249.49Z"/><path class="cls-3" d="M124.7,138.38c1,1.39,2,2.16,2.06,3,0,.63-.94,1.73-1.67,2a1.72,1.72,0,0,1-2.27-1.77C122.86,140.69,123.78,139.86,124.7,138.38Z"/><path class="cls-3" d="M111.73,141.44c-1.32.92-2.06,1.78-2.94,2-1.24.25-2-.62-2.14-1.91s1.1-2.61,2.23-2.24C109.76,139.54,110.45,140.43,111.73,141.44Z"/><path class="cls-3" d="M302.48,268.28c-1.36,1.07-2.08,2.07-2.92,2.17-.63.07-1.75-.87-2-1.59a1.7,1.7,0,0,1,1.68-2.32C300.09,266.54,301,267.42,302.48,268.28Z"/><path class="cls-3" d="M29.28,122.69c1.06,1.23,2,1.89,2.29,2.76.42,1.11-.88,2.37-2.15,2.31s-2.2-.82-2-2.06C27.58,124.81,28.42,124,29.28,122.69Z"/><path class="cls-3" d="M61.43,122.68c.87,1.48,1.74,2.32,1.79,3.2A1.67,1.67,0,0,1,61,127.62c-.74-.24-1.75-1.36-1.68-2C59.38,124.79,60.38,124,61.43,122.68Z"/><path class="cls-3" d="M251.84,218.07c.9,1.39,1.71,2.15,1.89,3,.24,1.14-1.29,2.33-2.43,2.07s-2.07-1.16-1.72-2.36C249.82,220,250.76,219.33,251.84,218.07Z"/><path class="cls-3" d="M13.9,122.68c.92,1.36,1.76,2.11,2,3,.28,1.15-1.17,2.26-2.4,2.06s-2.08-1.09-1.74-2.29C12,124.59,12.89,123.92,13.9,122.68Z"/><path class="cls-3" d="M333.88,315.78c-1.34,1.08-2.06,2.09-2.91,2.2-.62.08-1.76-.89-2-1.62a1.67,1.67,0,0,1,1.68-2.3C331.52,314.1,332.37,314.94,333.88,315.78Z"/><path class="cls-3" d="M156.45,154.49c1.09,1.28,2,1.94,2.3,2.81.38,1-1,2.45-2.2,2.32s-2.19-.88-2-2.14C154.74,156.61,155.56,155.85,156.45,154.49Z"/><path class="cls-3" d="M216.85,189.43c1.36-1.06,2.1-2.06,3-2.15.62-.07,1.75.93,2,1.66a1.68,1.68,0,0,1-1.73,2.27C219.18,191.16,218.34,190.3,216.85,189.43Z"/><path class="cls-3" d="M236.05,202c.93,1.35,1.76,2.1,2,3,.28,1.14-1.17,2.26-2.4,2.06s-2.09-1.08-1.75-2.29C234.13,203.89,235,203.21,236.05,202Z"/><path class="cls-3" d="M349.13,347.29c-.25,1.9-1,2.81-2.29,2.49a3,3,0,0,1-1.86-1.87,1.73,1.73,0,0,1,2-2.1C347.81,345.94,348.56,346.88,349.13,347.29Z"/><path class="cls-3" d="M47.68,125.12c-.23,1.9-1,2.81-2.26,2.5a3,3,0,0,1-1.89-1.85,1.73,1.73,0,0,1,2-2.11C46.35,123.77,47.11,124.71,47.68,125.12Z"/><path class="cls-3" d="M359.72,411.25c1.35-.93,2.11-1.76,3-2,1.15-.27,2.26,1.17,2.06,2.41s-1.09,2.08-2.3,1.74C361.63,413.17,361,412.26,359.72,411.25Z"/><path class="cls-3" d="M362.87,392.28c.89,1.54,1.79,2.41,1.75,3.23a2.77,2.77,0,0,1-1.86,1.81,1.73,1.73,0,0,1-2.07-2C360.83,394.46,361.79,393.73,362.87,392.28Z"/><path class="cls-3" d="M170.23,156.9c.6-.39,1.39-1.31,2.2-1.32.62,0,1.71,1.13,1.74,1.8a2.63,2.63,0,0,1-1.62,1.93C171.33,159.65,170.49,158.82,170.23,156.9Z"/><path class="cls-3" d="M80.17,125.83c-1.43.85-2.28,1.73-3.1,1.7-.6,0-1.55-1.19-1.65-1.94a1.63,1.63,0,0,1,2.14-1.81C78.32,124,78.93,124.81,80.17,125.83Z"/><path class="cls-3" d="M312.17,284.41c1.5-1,2.28-2,3.09-2a2.47,2.47,0,0,1,1.76,1.74,2.52,2.52,0,0,1-1.55,2C314.65,286.15,313.78,285.29,312.17,284.41Z"/><path class="cls-3" d="M328.12,300.24c1.42-.87,2.15-1.65,2.93-1.7a1.48,1.48,0,0,1,1.54,2c-.19.63-1.12,1.49-1.67,1.46C330.17,301.94,329.47,301.13,328.12,300.24Z"/><path class="cls-3" d="M236.15,186.48c.75,1.5,1.47,2.29,1.4,3S236.3,191.12,236,191a3,3,0,0,1-1.82-1.81C234.08,188.58,235.1,187.84,236.15,186.48Z"/><path class="cls-3" d="M248.83,205.1c1.33-.94,2-1.76,2.75-1.83.55-.05,1.51.79,1.72,1.42a1.48,1.48,0,0,1-1.48,2C251,206.69,250.28,205.92,248.83,205.1Z"/><path class="cls-3" d="M204.14,175.91c-.9-1.32-1.84-2.09-1.75-2.73s1.11-1.31,1.73-2c.65.63,1.72,1.2,1.82,1.91S205.06,174.57,204.14,175.91Z"/><path class="cls-3" d="M299.63,249.67c.79,1.42,1.53,2.18,1.51,2.93,0,.55-1.16,1.61-1.54,1.5-.76-.21-1.8-1-1.86-1.68S298.66,251,299.63,249.67Z"/><path class="cls-3" d="M346.83,329.35c1,1.29,2,2,2,2.66s-1.08,1.36-1.68,2c-.66-.61-1.71-1.13-1.85-1.84S346,330.74,346.83,329.35Z"/><path class="cls-3" d="M140.62,138.61c.9,1.37,1.84,2.19,1.73,2.82s-1.2,1.25-1.86,1.87c-.6-.66-1.6-1.28-1.68-2S139.69,139.91,140.62,138.61Z"/><path class="cls-3" d="M92.91,122.9c1,1.29,1.91,2,1.86,2.66s-1.06,1.36-1.65,2c-.67-.61-1.75-1.13-1.89-1.84S92,124.29,92.91,122.9Z"/><path class="cls-3" d="M280.65,236.69c1.36-.91,2.16-1.87,2.8-1.77s1.27,1.18,1.89,1.84c-.65.61-1.26,1.62-2,1.71S282,237.6,280.65,236.69Z"/><path class="cls-3" d="M267.72,223.78c-.9-1.32-1.84-2.09-1.75-2.73s1.11-1.31,1.73-2c.65.63,1.72,1.2,1.82,1.92S268.64,222.44,267.72,223.78Z"/><path class="cls-3" d="M362.6,376.8c1,1.3,1.95,2,1.91,2.71a2.76,2.76,0,0,1-1.76,1.86,1.46,1.46,0,0,1-1.84-1.71C361,378.86,361.77,378.16,362.6,376.8Z"/><path class="cls-3" d="M359.94,364.11c1.36-1,2.11-2,2.71-2s1.52,1.06,1.81,1.82c.12.32-.95,1.52-1.53,1.57S361.42,364.87,359.94,364.11Z"/><path class="cls-3" d="M378.45,487.93c.91,1.35,1.87,2.16,1.77,2.8s-1.18,1.26-1.84,1.89c-.61-.66-1.62-1.26-1.71-2S377.54,489.24,378.45,487.93Z"/><path class="cls-3" d="M381.2,474.71c-1.23,1-1.91,2.05-2.59,2.05a2.74,2.74,0,0,1-1.95-1.61,1.43,1.43,0,0,1,1.56-1.94C379,473.27,379.78,474,381.2,474.71Z"/><path class="cls-3" d="M376,459.18c1.23-1.05,1.9-2.07,2.58-2.07a2.75,2.75,0,0,1,2,1.59,1.44,1.44,0,0,1-1.55,2C378.16,460.59,377.4,459.91,376,459.18Z"/><path class="cls-3" d="M379.29,440.45c.59,1.53,1.23,2.39,1.12,3.14-.09.53-1.38,1.41-1.77,1.25-.71-.3-1.6-1.27-1.57-1.92S378.15,441.65,379.29,440.45Z"/><path class="cls-3" d="M378.9,424.35c.81,1.45,1.57,2.21,1.53,2.93s-1.19,1.68-1.52,1.57c-.77-.25-1.77-1-1.89-1.73S377.91,425.73,378.9,424.35Z"/><path class="cls-3" d="M156.6,139.05c.76.94,1.5,1.47,1.66,2.14a1.44,1.44,0,0,1-1.6,1.87,2.87,2.87,0,0,1-1.7-1.87C154.85,140.74,155.82,140,156.6,139.05Z"/><path class="cls-3" d="M315.19,266.21c.76,1,1.49,1.48,1.65,2.15a1.44,1.44,0,0,1-1.62,1.86,2.84,2.84,0,0,1-1.68-1.88C313.42,267.9,314.4,267.17,315.19,266.21Z"/><path class="cls-3" d="M188.56,154.93c.73,1.22,1.49,2,1.5,2.71,0,.51-1,1.36-1.67,1.45a1.4,1.4,0,0,1-1.61-1.84C186.94,156.57,187.68,156,188.56,154.93Z"/><path class="cls-3" d="M106,125.33c1.53-.67,2.35-1.33,3.08-1.24a2.14,2.14,0,0,1,1.22,1.77c-.08.59-1.1,1.55-1.59,1.48C108,127.24,107.36,126.38,106,125.33Z"/><path class="cls-3" d="M381.09,411.36c-.95.8-1.65,1.79-2.1,1.68a2.86,2.86,0,0,1-1.91-1.64,1.44,1.44,0,0,1,1.84-1.65C379.59,409.9,380.13,410.62,381.09,411.36Z"/><path class="cls-3" d="M43.2,109.72c1-.83,1.66-1.7,2.22-1.67s1.18.92,1.77,1.43c-.52.58-1,1.54-1.56,1.63S44.33,110.42,43.2,109.72Z"/><path class="cls-3" d="M331.14,281.9c.65,1.17,1.41,1.91,1.3,2.47s-1.09,1-1.69,1.5c-.49-.61-1.35-1.2-1.36-1.81S330.27,282.91,331.14,281.9Z"/><path class="cls-3" d="M217.49,173.11c1.09-.74,1.79-1.58,2.35-1.5a2.2,2.2,0,0,1,1.51,1.59c0,.54-1,1.45-1.58,1.5S218.55,173.89,217.49,173.11Z"/><path class="cls-3" d="M127.16,125.8c-1.14.69-1.86,1.48-2.43,1.39a1.54,1.54,0,0,1,.21-3.07C125.52,124.1,126.13,125,127.16,125.8Z"/><path class="cls-3" d="M346.86,313.7c.83,1.05,1.7,1.67,1.67,2.25a2.23,2.23,0,0,1-1.48,1.61,2.19,2.19,0,0,1-1.6-1.47C345.36,315.53,346.16,314.82,346.86,313.7Z"/><path class="cls-3" d="M29.71,107.25c.65,1.17,1.4,1.92,1.28,2.48a2.17,2.17,0,0,1-1.68,1.36,2.17,2.17,0,0,1-1.37-1.67C27.94,108.84,28.83,108.27,29.71,107.25Z"/><path class="cls-3" d="M16.08,109.44c-1,.82-1.64,1.7-2.21,1.67s-1.17-.91-1.75-1.42c.51-.59,1-1.54,1.56-1.65S15,108.74,16.08,109.44Z"/><path class="cls-3" d="M360.35,347.77c1.11-.75,1.79-1.58,2.36-1.51s1.1,1,1.65,1.58c-.57.54-1.1,1.45-1.72,1.51S361.42,348.56,360.35,347.77Z"/><path class="cls-3" d="M381.11,395.17c-1,.83-1.64,1.7-2.22,1.68s-1.17-.91-1.75-1.42c.51-.59,1-1.54,1.56-1.65S380,394.47,381.11,395.17Z"/><path class="cls-3" d="M201.78,157.21c1.3-.59,2-1.17,2.66-1.12.42,0,1.1,1,1,1.54s-.94,1.33-1.35,1.27C203.47,158.79,202.91,158.07,201.78,157.21Z"/><path class="cls-3" d="M269.58,204.91c-.71.64-1.31,1.51-1.66,1.42-.66-.16-1.19-.89-1.77-1.38.56-.51,1.06-1.26,1.71-1.46C268.2,203.39,268.84,204.27,269.58,204.91Z"/><path class="cls-3" d="M61.41,107.62c.64,1.27,1.24,1.95,1.21,2.61,0,.41-1,1.13-1.5,1.09s-1.37-.91-1.32-1.31C59.89,109.35,60.59,108.77,61.41,107.62Z"/><path class="cls-3" d="M283.56,223.36c-.83-1.16-1.53-1.74-1.6-2.4,0-.41.82-1.26,1.33-1.3s1.48.68,1.5,1.1C284.81,221.41,284.2,222.09,283.56,223.36Z"/><path class="cls-3" d="M170.25,141.37c1-.68,1.54-1.4,2.17-1.45.45,0,1,.84,1.45,1.31-.53.53-1,1.3-1.62,1.51C171.89,142.86,171.22,142.07,170.25,141.37Z"/><path class="cls-3" d="M299.58,234.86c.62.76,1.47,1.42,1.36,1.76-.21.65-1,1.12-1.51,1.67-.47-.6-1.18-1.15-1.32-1.81C298,236.11,298.93,235.54,299.58,234.86Z"/><path class="cls-3" d="M75.52,109.83c.8-.58,1.53-1.39,1.8-1.26.61.31,1,1.07,1.49,1.64-.55.37-1.11,1-1.65,1S76.22,110.47,75.52,109.83Z"/><path class="cls-3" d="M93.08,108.1c.59.89,1.31,1.5,1.23,2s-.92,1-1.51,1.12c-.24.06-1-.81-1-1.18C91.89,109.44,92.48,109,93.08,108.1Z"/><path class="cls-3" d="M237.74,173.33c-.93.54-1.59,1.22-2.05,1.1s-.88-1-1-1.61c0-.24.89-1,1.25-.89C236.52,172.06,237,172.69,237.74,173.33Z"/><path class="cls-3" d="M188.53,139.52c.53.9,1.07,1.44,1.11,2,0,.35-.86,1.13-1.11,1.05-.57-.18-1.35-.77-1.38-1.23S187.87,140.34,188.53,139.52Z"/><path class="cls-3" d="M347.25,298.53c.47.81,1.11,1.41,1,1.89s-.84.91-1.31,1.36c-.48-.57-1.16-1.09-1.35-1.75C345.53,299.76,346.5,299.19,347.25,298.53Z"/><path class="cls-3" d="M315.13,250.93c.65.74,1.53,1.37,1.43,1.69-.2.62-.95,1.06-1.47,1.58-.42-.48-1.16-.94-1.18-1.43S314.56,251.73,315.13,250.93Z"/><path class="cls-3" d="M251.66,187.35c.61.79,1.45,1.48,1.33,1.78-.25.61-1,1-1.57,1.49-.39-.51-1.1-1-1.09-1.52S251.06,188.09,251.66,187.35Z"/><path class="cls-3" d="M142.35,125.7c-.76.58-1.29,1.28-1.76,1.25s-1-.74-1.52-1.16c.52-.53,1-1.25,1.6-1.51C140.94,124.17,141.61,125.05,142.35,125.7Z"/><path class="cls-3" d="M362.32,329.33c1.07,1.72,1.71,2.3,1.67,2.82s-.83.89-1.28,1.33c-.49-.54-1.27-1-1.38-1.65S361.8,330.54,362.32,329.33Z"/><path class="cls-3" d="M331,266.68c.58.9,1.29,1.53,1.19,2s-.94.94-1.54,1.08c-.23.06-1-.83-.95-1.2C329.76,268,330.36,267.51,331,266.68Z"/><path class="cls-3" d="M376.15,380c1.61-1.07,2.18-1.74,2.65-1.68s1,.79,1.44,1.23c-.55.51-1,1.3-1.66,1.44S377.32,380.51,376.15,380Z"/><path class="cls-3" d="M377,363.77c.91-.53,1.45-1.08,2-1.09.38,0,1.18.88,1.1,1.1-.23.57-.79,1.31-1.3,1.38S377.79,364.44,377,363.77Z"/><path class="cls-3" d="M394.52,488.8c.62.78,1.46,1.47,1.33,1.78-.25.6-1,1-1.57,1.49-.39-.51-1.09-1-1.08-1.53S393.92,489.54,394.52,488.8Z"/><path class="cls-3" d="M394.41,473.09c.66.74,1.54,1.37,1.43,1.69-.19.61-.94,1.06-1.46,1.57-.42-.47-1.16-.93-1.18-1.42S393.85,473.88,394.41,473.09Z"/><path class="cls-3" d="M394.58,457.08c.6.79,1.41,1.52,1.28,1.78-.3.62-1.05,1-1.62,1.5-.38-.54-1.05-1.08-1.05-1.62S394,457.79,394.58,457.08Z"/><path class="cls-3" d="M392.67,443.06c.91-.53,1.45-1.08,2-1.09.39,0,1.19.88,1.1,1.09-.22.58-.78,1.31-1.29,1.39S393.5,443.73,392.67,443.06Z"/><path class="cls-3" d="M392.69,427.35c.77-.72,1.26-1.54,1.71-1.51s1.12.74,1.37,1.3c.1.22-.64,1.17-1,1.18C394.19,428.33,393.62,427.82,392.69,427.35Z"/><path class="cls-3" d="M108.65,108.37c.56.63,1.19,1,1.2,1.44s-.55.91-.86,1.36c-.49-.41-1.13-.74-1.4-1.26C107.48,109.69,108.15,109.07,108.65,108.37Z"/><path class="cls-3" d="M394.68,409.81c.44.75,1,1.26.92,1.67s-.72.77-1.12,1.14c-.4-.49-1-.93-1.13-1.49C393.28,410.88,394.06,410.4,394.68,409.81Z"/><path class="cls-3" d="M221.46,157.46c-.68.52-1.12,1.12-1.54,1.1s-.85-.62-1.27-1c.43-.46.8-1.08,1.33-1.29C220.22,156.2,220.79,156.91,221.46,157.46Z"/><path class="cls-3" d="M157.93,126c-.46.28-1.13.92-1.35.79-.5-.3-.78-1-1.15-1.48.47-.29.93-.77,1.42-.8a5.09,5.09,0,0,1,1.74.52Z"/><path class="cls-3" d="M362.45,314.4c.65.59,1.44,1.05,1.38,1.31-.14.56-.71,1-1.11,1.5-.4-.37-1.06-.69-1.13-1.12S362,315.15,362.45,314.4Z"/><path class="cls-3" d="M379,346.39c.38.69.85,1.2.74,1.42a2.16,2.16,0,0,1-1.19,1c-.17.06-.89-.72-.82-.95C377.87,347.39,378.39,347.05,379,346.39Z"/><path class="cls-3" d="M125.33,108.7c.25.64.64,1.23.51,1.4a4.72,4.72,0,0,1-1.34.88,4.73,4.73,0,0,1-.52-1.55C124,109.23,124.7,109,125.33,108.7Z"/><path class="cls-3" d="M283.21,203.52c.59.66,1.11,1,1.24,1.47.07.24-.66,1-.83.95a2.21,2.21,0,0,1-1.18-1C282.33,204.71,282.82,204.21,283.21,203.52Z"/><path class="cls-3" d="M15.07,93.63c-.44.53-.76,1.17-1,1.13A4.56,4.56,0,0,1,12.68,94a5,5,0,0,1,1.1-1.21C14,92.72,14.49,93.24,15.07,93.63Z"/><path class="cls-3" d="M393,395.25c.75-.45,1.2-.88,1.69-.94.24,0,.56.64.85,1-.41.33-.78.82-1.24.92C394,396.29,393.59,395.74,393,395.25Z"/><path class="cls-3" d="M300.82,221.05c-.5.42-.92,1-1.16.91a4.39,4.39,0,0,1-1.28-1,4.54,4.54,0,0,1,1.3-1C299.89,220,300.31,220.57,300.82,221.05Z"/><path class="cls-3" d="M266.28,189c.69-.38,1.2-.86,1.42-.75a2.2,2.2,0,0,1,1,1.19c.06.17-.73.9-1,.82C267.27,190.14,266.93,189.62,266.28,189Z"/><path class="cls-3" d="M348.49,284c-.67.6-1,1.09-1.51,1.25-.2.07-1-.64-.9-.83a2,2,0,0,1,1-1.18C347.27,283.16,347.79,283.64,348.49,284Z"/><path class="cls-3" d="M30.78,93.63c-.44.53-.76,1.17-1,1.13A4.56,4.56,0,0,1,28.39,94a5,5,0,0,1,1.1-1.21C29.67,92.72,30.19,93.24,30.78,93.63Z"/><path class="cls-3" d="M47.06,93.81c-.62.49-1,1-1.3,1-.46-.11-.83-.6-1.24-.93.29-.35.61-1,.85-1A5.9,5.9,0,0,1,47.06,93.81Z"/><path class="cls-3" d="M313.68,236.67a5.86,5.86,0,0,1,1.69-.93c.24,0,.56.63.85,1-.41.33-.78.82-1.24.93C314.71,237.71,314.3,237.16,313.68,236.67Z"/><path class="cls-3" d="M331.28,251.81c.17.38.55.82.46,1.11s-.62.56-1,.83c-.27-.35-.72-.68-.76-1.05a3.39,3.39,0,0,1,.45-1.33Z"/><path class="cls-3" d="M171,125.83c.56-.5.87-1,1.2-1s.94.44.95.71a1.26,1.26,0,0,1-.73,1C172.12,126.61,171.68,126.18,171,125.83Z"/><path class="cls-3" d="M251.45,171.83c.49.56,1,.87,1,1.21s-.44.93-.71.94a1.21,1.21,0,0,1-1-.72C250.67,172.94,251.09,172.51,251.45,171.83Z"/><path class="cls-3" d="M235.93,158.75c-.46-.61-1-1-.93-1.3s.59-.65.91-1c.31.33.81.62.86,1S236.34,158.15,235.93,158.75Z"/><path class="cls-3" d="M141.87,109.75c-.57.53-.88,1-1.21,1.07a1.23,1.23,0,0,1-.95-.76,1.22,1.22,0,0,1,.72-1C140.75,109,141.19,109.43,141.87,109.75Z"/><path class="cls-3" d="M78.34,94.24c-.38.18-.81.56-1.11.47s-.56-.63-.83-1c.35-.27.69-.72,1.06-.76a3.54,3.54,0,0,1,1.34.45C78.64,93.7,78.49,94,78.34,94.24Z"/><path class="cls-3" d="M205.45,141.16c-.57.54-.88,1.06-1.21,1.07a1.22,1.22,0,0,1-1-.75,1.2,1.2,0,0,1,.72-.95C204.33,140.46,204.77,140.84,205.45,141.16Z"/><path class="cls-3" d="M361.4,300.32c.6-.45,1-.95,1.3-.91s.65.59,1,.92c-.32.3-.63.8-1,.85S362,300.74,361.4,300.32Z"/><path class="cls-3" d="M61.41,92.54c.36.68.79,1.11.71,1.43a1.25,1.25,0,0,1-1,.73c-.26,0-.72-.62-.71-1S60.92,93.11,61.41,92.54Z"/><path class="cls-3" d="M394.68,378.28c.33.67.71,1.11.64,1.44a1.19,1.19,0,0,1-.95.71,1.21,1.21,0,0,1-.75-.94C393.64,379.15,394.15,378.85,394.68,378.28Z"/></g><g class="cls-4"><polygon class="cls-5" points="671.2 0 260.06 411.13 259.35 410.42 669.78 0 671.2 0"/><polygon class="cls-5" points="680.45 0 269.31 411.13 268.6 410.42 679.03 0 680.45 0"/><polygon class="cls-5" points="689.7 0 278.56 411.13 277.85 410.42 688.28 0 689.7 0"/><polygon class="cls-5" points="698.95 0 287.81 411.13 287.1 410.42 697.53 0 698.95 0"/><polygon class="cls-5" points="708.2 0 297.06 411.13 296.35 410.42 706.78 0 708.2 0"/><polygon class="cls-5" points="717.45 0 306.31 411.13 305.6 410.42 716.03 0 717.45 0"/><polygon class="cls-5" points="726.7 0 315.56 411.13 314.85 410.42 725.28 0 726.7 0"/><polygon class="cls-5" points="735.95 0 324.81 411.13 324.1 410.42 734.53 0 735.95 0"/><polygon class="cls-5" points="745.2 0 334.06 411.13 333.35 410.42 743.78 0 745.2 0"/><polygon class="cls-5" points="750 3.03 750 4.45 343.31 411.13 342.6 410.42 750 3.03"/><polygon class="cls-5" points="750 12.28 750 13.7 352.56 411.13 351.85 410.42 750 12.28"/><polygon class="cls-5" points="750 21.53 750 22.95 361.81 411.13 361.1 410.42 750 21.53"/><polygon class="cls-5" points="750 30.78 750 32.2 371.06 411.13 370.35 410.42 750 30.78"/><polygon class="cls-5" points="750 40.03 750 41.45 380.31 411.13 379.6 410.42 750 40.03"/><polygon class="cls-5" points="750 49.28 750 50.7 389.56 411.13 388.85 410.42 750 49.28"/><polygon class="cls-5" points="750 58.53 750 59.95 398.81 411.13 398.1 410.42 750 58.53"/></g><polygon class="cls-6" points="750 62.55 750 500 0 500 0 420.85 113.55 307.3 505.25 307.3 750 62.55"/><polygon class="cls-3" points="505.25 307.3 113.55 307.3 0 420.85 0 423.7 113.55 310.15 505.25 310.15 750 65.41 750 62.55 505.25 307.3"/><polygon class="cls-3" points="750 211.92 750 500 207.25 500 495.33 211.92 750 211.92"/><polygon class="cls-7" points="750 214.75 750 500 212.58 500 497.83 214.75 750 214.75"/><rect class="cls-3" x="310.58" y="324.45" width="350.67" height="1"/><rect class="cls-3" x="305.96" y="329.93" width="350.67" height="1"/><rect class="cls-3" x="301.33" y="335.41" width="350.67" height="1"/><rect class="cls-3" x="296.71" y="340.9" width="350.67" height="1"/><rect class="cls-3" x="292.08" y="346.38" width="350.67" height="1"/><rect class="cls-3" x="287.46" y="351.87" width="350.67" height="1"/><rect class="cls-3" x="282.83" y="357.35" width="350.67" height="1"/><rect class="cls-3" x="278.21" y="362.83" width="350.67" height="1"/><rect class="cls-3" x="273.58" y="368.32" width="350.67" height="1"/><rect class="cls-3" x="268.96" y="373.8" width="350.67" height="1"/><rect class="cls-3" x="264.33" y="379.29" width="350.67" height="1"/><rect class="cls-3" x="259.71" y="384.77" width="350.67" height="1"/><rect class="cls-3" x="255.08" y="390.26" width="350.67" height="1"/><polygon class="cls-8" points="750 150.86 750 500 9.16 500 113.55 395.61 505.25 395.61 750 150.86"/><polygon class="cls-3" points="505.25 395.61 113.55 395.61 9.16 500 12.45 500 113.55 398.9 505.25 398.9 750 154.15 750 150.86 505.25 395.61"/><polygon class="cls-9" points="658.26 0 158.27 500 93.25 500 593.25 0 658.26 0"/><polygon class="cls-3" points="593.25 0 93.25 500 97.08 500 597.08 0 593.25 0"/><polygon class="cls-10" points="750 351.48 750 500 499.25 500 647.77 351.48 750 351.48"/><polygon class="cls-3" points="648.77 352.36 750 352.36 750 351.48 647.77 351.48 499.25 500 501.13 500 648.77 352.36"/><polygon class="cls-3" points="746.6 500 750 496.6 750 498.02 748.02 500 746.6 500"/><polygon class="cls-3" points="737.35 500 750 487.35 750 488.77 738.77 500 737.35 500"/><polygon class="cls-3" points="728.1 500 750 478.1 750 479.52 729.52 500 728.1 500"/><polygon class="cls-3" points="718.85 500 750 468.85 750 470.27 720.27 500 718.85 500"/><polygon class="cls-3" points="709.6 500 750 459.6 750 461.02 711.02 500 709.6 500"/><polygon class="cls-3" points="700.35 500 750 450.35 750 451.77 701.77 500 700.35 500"/><polygon class="cls-3" points="691.1 500 750 441.1 750 442.52 692.52 500 691.1 500"/><polygon class="cls-3" points="681.85 500 750 431.85 750 433.27 683.27 500 681.85 500"/><polygon class="cls-3" points="672.6 500 750 422.6 750 424.02 674.02 500 672.6 500"/><polygon class="cls-3" points="663.35 500 750 413.35 750 414.77 664.77 500 663.35 500"/><polygon class="cls-3" points="654.1 500 750 404.1 750 405.52 655.52 500 654.1 500"/><polygon class="cls-3" points="644.85 500 750 394.85 750 396.27 646.27 500 644.85 500"/><polygon class="cls-3" points="635.6 500 750 385.6 750 387.02 637.02 500 635.6 500"/><polygon class="cls-3" points="626.35 500 750 376.35 750 377.77 627.77 500 626.35 500"/><polygon class="cls-3" points="617.1 500 750 367.1 750 368.52 618.52 500 617.1 500"/></g></g></g></svg>