<?xml version="1.0" encoding="utf-8"?>
<!-- Generator: Adobe Illustrator 24.0.2, SVG Export Plug-In . SVG Version: 6.00 Build 0)  -->
<svg version="1.1" id="Слой_1" xmlns="http://www.w3.org/2000/svg" xmlns:xlink="http://www.w3.org/1999/xlink" x="0px" y="0px"
	 viewBox="0 0 280 275" style="enable-background:new 0 0 280 275;" xml:space="preserve">
<style type="text/css">
	.st0{fill:#C1272D;}
</style>
<g>
	<path class="st0" d="M141.8,50.1c-0.4-2-0.7-3.6-0.8-4.8l-0.1-1.7h-0.7c0,3.8-0.7,7.8-2.2,12.1L130.3,77h20.6l-7.6-21.1
		C142.7,54.1,142.2,52.1,141.8,50.1z"/>
	<path class="st0" d="M185.5,10.5h-90c-8.3,0-15,6.7-15,15v90c0,8.3,6.7,15,15,15h90c8.3,0,15-6.7,15-15v-90
		C200.5,17.2,193.8,10.5,185.5,10.5z M170.4,103.2h-5.2c-2.1,0-3.5-0.2-4.4-0.6c-0.8-0.4-1.4-1.2-1.8-2.4l-4.6-12.9h-27.6l-4.7,12.9
		c-0.4,1.2-1,2-1.9,2.4c-0.8,0.4-2.3,0.6-4.4,0.6h-4.6c-2.3,0-3.1-1.1-2.3-3.3l25-65c0.5-1.1,1-1.9,1.5-2.3c0.6-0.4,1.5-0.6,2.7-0.6
		h5.3c1.2,0,2.1,0.2,2.7,0.6c0.6,0.4,1.1,1.1,1.5,2.1l25,65.1C173.5,102.1,172.8,103.2,170.4,103.2z"/>
</g>
<g>
	<path class="st0" d="M76.4,207.9H57.5v18.6h18.9c6.3,0,9.5-3.1,9.5-9.2C85.9,211,82.8,207.9,76.4,207.9z"/>
	<path class="st0" d="M83.8,187.7c0-5.9-3.1-8.8-9.2-8.8H57.5v17.6h17.1C80.8,196.5,83.8,193.5,83.8,187.7z"/>
	<path class="st0" d="M115,141H25c-8.3,0-15,6.7-15,15v90c0,8.3,6.7,15,15,15h90c8.3,0,15-6.7,15-15v-90
		C130,147.7,123.3,141,115,141z M93,233c-4.1,3.4-9.6,5.1-16.3,5.1H48.4c-1.3,0-2.2-0.3-2.7-0.8c-0.5-0.5-0.8-1.4-0.8-2.6v-64.2
		c0-1.3,0.3-2.1,0.8-2.6c0.5-0.5,1.4-0.8,2.7-0.8h27.7c6.5,0,11.5,1.6,15.1,4.9c3.6,3.2,5.4,7.8,5.4,13.8c0,7.1-2.5,12.1-7.6,15.1
		v0.4c6.8,2.4,10.2,8.2,10.2,17.3C99.2,224.8,97.2,229.6,93,233z"/>
</g>
<path class="st0" d="M255,141h-90c-8.3,0-15,6.7-15,15v90c0,8.3,6.7,15,15,15h90c8.3,0,15-6.7,15-15v-90
	C270,147.7,263.3,141,255,141z M238.8,220.9c-3.9,11.2-13,16.8-27.3,16.8c-9.1,0-16.2-2.3-21.2-7c-5-4.6-7.4-11-7.4-19.2v-21.9
	c0-8.1,2.5-14.4,7.4-19c5-4.6,12-7,21.2-7c14.2,0,23.3,5.6,27.2,16.7c0.8,2.1,0.1,3.6-2.1,4.4l-5.5,1.9c-1.2,0.4-2.1,0.5-2.7,0.1
	c-0.6-0.3-1.1-1-1.6-2.3c-2.2-6.1-7.3-9.2-15.3-9.2c-5.1,0-9.1,1.2-11.8,3.7c-2.8,2.4-4.2,5.9-4.2,10.5v22.1c0,4.6,1.4,8.1,4.2,10.6
	c2.8,2.5,6.7,3.7,11.8,3.7c7.9,0,13-3.1,15.3-9.3c0.5-1.3,1.1-2,1.7-2.4c0.6-0.3,1.5-0.2,2.7,0.3l5.4,1.9
	C238.8,217.3,239.6,218.7,238.8,220.9z"/>
</svg>
