<svg xmlns="http://www.w3.org/2000/svg" xmlns:xlink="http://www.w3.org/1999/xlink" viewBox="0 0 750 500"><defs><style>.cls-1{fill:url(#linear-gradient);}.cls-10,.cls-11,.cls-12,.cls-15,.cls-16,.cls-17,.cls-18,.cls-19,.cls-2,.cls-20,.cls-21,.cls-5,.cls-6,.cls-7,.cls-8,.cls-9{opacity:0.8;}.cls-2{fill:url(#Degradado_sin_nombre_89);}.cls-3{fill:url(#linear-gradient-2);}.cls-4{fill:url(#linear-gradient-3);}.cls-5{fill:url(#Degradado_sin_nombre_89-2);}.cls-6{fill:url(#Degradado_sin_nombre_89-3);}.cls-7{fill:url(#Degradado_sin_nombre_89-4);}.cls-8{fill:url(#Degradado_sin_nombre_89-5);}.cls-9{fill:url(#Degradado_sin_nombre_89-6);}.cls-10{fill:url(#Degradado_sin_nombre_89-7);}.cls-11{fill:url(#Degradado_sin_nombre_89-8);}.cls-12{fill:url(#Degradado_sin_nombre_89-9);}.cls-13{fill:url(#linear-gradient-4);}.cls-14{fill:url(#linear-gradient-5);}.cls-15{fill:url(#Degradado_sin_nombre_89-10);}.cls-16{fill:url(#Degradado_sin_nombre_89-11);}.cls-17{fill:url(#Degradado_sin_nombre_89-12);}.cls-18{fill:url(#Degradado_sin_nombre_89-13);}.cls-19{fill:url(#Degradado_sin_nombre_89-14);}.cls-20{fill:url(#Degradado_sin_nombre_89-15);}.cls-21{fill:url(#Degradado_sin_nombre_89-16);}</style><linearGradient id="linear-gradient" x1="686.39" y1="-61.39" x2="29.8" y2="595.2" gradientUnits="userSpaceOnUse"><stop offset="0" stop-color="#e2e5e6"/><stop offset="0.49" stop-color="#f6f6f6"/><stop offset="1" stop-color="#e2e5e6"/></linearGradient><linearGradient id="Degradado_sin_nombre_89" x1="194.07" y1="305.93" x2="-10.17" y2="510.17" gradientUnits="userSpaceOnUse"><stop offset="0" stop-color="#fff"/><stop offset="0.17" stop-color="#fff" stop-opacity="0.74"/><stop offset="0.33" stop-color="#fff" stop-opacity="0.52"/><stop offset="0.49" stop-color="#fff" stop-opacity="0.33"/><stop offset="0.64" stop-color="#fff" stop-opacity="0.19"/><stop offset="0.78" stop-color="#fff" stop-opacity="0.08"/><stop offset="0.9" stop-color="#fff" stop-opacity="0.02"/><stop offset="1" stop-color="#fff" stop-opacity="0"/></linearGradient><linearGradient id="linear-gradient-2" x1="749.8" y1="0.2" x2="630.1" y2="119.9" xlink:href="#linear-gradient"/><linearGradient id="linear-gradient-3" x1="69.27" y1="431.15" x2="-3.41" y2="503.83" xlink:href="#linear-gradient"/><linearGradient id="Degradado_sin_nombre_89-2" x1="686.01" y1="63.99" x2="581.26" y2="168.74" xlink:href="#Degradado_sin_nombre_89"/><linearGradient id="Degradado_sin_nombre_89-3" x1="612.72" y1="137.28" x2="553.79" y2="196.21" xlink:href="#Degradado_sin_nombre_89"/><linearGradient id="Degradado_sin_nombre_89-4" x1="525.72" y1="99.28" x2="285.5" y2="339.5" xlink:href="#Degradado_sin_nombre_89"/><linearGradient id="Degradado_sin_nombre_89-5" x1="350.41" y1="278.51" x2="440.52" y2="188.4" xlink:href="#Degradado_sin_nombre_89"/><linearGradient id="Degradado_sin_nombre_89-6" x1="449.56" y1="223.4" x2="392.48" y2="280.48" xlink:href="#Degradado_sin_nombre_89"/><linearGradient id="Degradado_sin_nombre_89-7" x1="256.03" y1="248.11" x2="151.28" y2="352.86" xlink:href="#Degradado_sin_nombre_89"/><linearGradient id="Degradado_sin_nombre_89-8" x1="94.61" y1="406.91" x2="-4.16" y2="505.68" xlink:href="#Degradado_sin_nombre_89"/><linearGradient id="Degradado_sin_nombre_89-9" x1="194.07" y1="2392.8" x2="-10.17" y2="2597.05" gradientTransform="matrix(1, 0, 0, -1, 0, 2586.88)" xlink:href="#Degradado_sin_nombre_89"/><linearGradient id="linear-gradient-4" x1="749.8" y1="2087.08" x2="630.1" y2="2206.78" gradientTransform="matrix(1, 0, 0, -1, 0, 2586.88)" xlink:href="#linear-gradient"/><linearGradient id="linear-gradient-5" x1="69.27" y1="2518.03" x2="-3.41" y2="2590.71" gradientTransform="matrix(1, 0, 0, -1, 0, 2586.88)" xlink:href="#linear-gradient"/><linearGradient id="Degradado_sin_nombre_89-10" x1="686.01" y1="2150.86" x2="581.26" y2="2255.61" gradientTransform="matrix(1, 0, 0, -1, 0, 2586.88)" xlink:href="#Degradado_sin_nombre_89"/><linearGradient id="Degradado_sin_nombre_89-11" x1="605.28" y1="2231.59" x2="543.16" y2="2293.72" gradientTransform="matrix(1, 0, 0, -1, 0, 2586.88)" xlink:href="#Degradado_sin_nombre_89"/><linearGradient id="Degradado_sin_nombre_89-12" x1="525.72" y1="2186.15" x2="285.5" y2="2426.37" gradientTransform="matrix(1, 0, 0, -1, 0, 2586.88)" xlink:href="#Degradado_sin_nombre_89"/><linearGradient id="Degradado_sin_nombre_89-13" x1="350.41" y1="2365.39" x2="440.52" y2="2275.28" gradientTransform="matrix(1, 0, 0, -1, 0, 2586.88)" xlink:href="#Degradado_sin_nombre_89"/><linearGradient id="Degradado_sin_nombre_89-14" x1="415.44" y1="2310.28" x2="358.36" y2="2367.35" gradientTransform="matrix(1, 0, 0, -1, 0, 2586.88)" xlink:href="#Degradado_sin_nombre_89"/><linearGradient id="Degradado_sin_nombre_89-15" x1="256.03" y1="2334.99" x2="151.28" y2="2439.74" gradientTransform="matrix(1, 0, 0, -1, 0, 2586.88)" xlink:href="#Degradado_sin_nombre_89"/><linearGradient id="Degradado_sin_nombre_89-16" x1="94.61" y1="2493.78" x2="-4.16" y2="2592.55" gradientTransform="matrix(1, 0, 0, -1, 0, 2586.88)" xlink:href="#Degradado_sin_nombre_89"/></defs><title>4940018</title><g id="BACKGROUND"><rect class="cls-1" width="750" height="500"/></g><g id="OBJECTS"><polygon class="cls-2" points="0 111.16 388.84 500 0 500 0 111.16"/><polygon class="cls-3" points="750 0 522.12 0 750 227.88 750 0"/><polygon class="cls-4" points="0 362.49 0 500 138.36 500 0 362.49"/><polygon class="cls-5" points="750 327.04 750 127.62 622.38 0 422.96 0 750 327.04"/><polygon class="cls-6" points="750 386.55 750 274.36 475.64 0 363.45 0 750 386.55"/><polygon class="cls-7" points="304.27 0 0 0 0 63.52 436.48 500 750 500 750 445.73 304.27 0"/><polygon class="cls-8" points="69.18 0 569.18 500 688.66 500 188.66 0 69.18 0"/><polygon class="cls-9" points="113.22 0 613.22 500 732.7 500 232.7 0 113.22 0"/><polygon class="cls-10" points="308.85 500 508.27 500 8.27 0 0 0 0 191.15 308.85 500"/><polygon class="cls-11" points="0 314.99 0 500 188.04 500 0 314.99"/><polygon class="cls-12" points="0 388.84 388.84 0 0 0 0 388.84"/><polygon class="cls-13" points="750 500 522.12 500 750 272.12 750 500"/><polygon class="cls-14" points="0 137.51 0 0 138.36 0 0 137.51"/><polygon class="cls-15" points="750 172.96 750 372.38 622.38 500 422.96 500 750 172.96"/><polygon class="cls-16" points="750 92.5 750 210.78 460.78 500 342.5 500 750 92.5"/><polygon class="cls-17" points="304.27 500 0 500 0 436.48 436.48 0 750 0 750 54.27 304.27 500"/><polygon class="cls-18" points="69.18 500 569.18 0 688.66 0 188.66 500 69.18 500"/><polygon class="cls-19" points="79.1 500 579.1 0 698.58 0 198.58 500 79.1 500"/><polygon class="cls-20" points="308.85 0 508.27 0 8.27 500 0 500 0 308.85 308.85 0"/><polygon class="cls-21" points="0 185.01 0 0 188.04 0 0 185.01"/></g></svg>